<?xml version="1.0" encoding="UTF-8"?>
<svg version="1.1" xmlns="http://www.w3.org/2000/svg" width="512" height="512">
<path d="M0 0 C14.52 0 29.04 0 44 0 C44.33 6.93 44.66 13.86 45 21 C47.454375 21.66 49.90875 22.32 52.4375 23 C61.13872133 25.45842949 69.09252539 29.03838954 77.14160156 33.11791992 C79.38184368 34.18124031 81.69757718 35.07903087 84 36 C88.62 31.38 93.24 26.76 98 22 C102.57501695 25.9214431 106.93250354 29.79220163 111.15234375 34.0546875 C111.69734024 34.60109894 112.24233673 35.14751038 112.80384827 35.71047974 C114.51746118 37.42962058 116.22753444 39.15223204 117.9375 40.875 C119.10979204 42.05231638 120.28231614 43.22940174 121.45507812 44.40625 C124.30606982 47.26817489 127.15389615 50.13321457 130 53 C126.66883385 56.95374187 123.31571444 60.81041857 119.625 64.4375 C118.59246094 65.45650391 118.59246094 65.45650391 117.5390625 66.49609375 C117.03117188 66.99238281 116.52328125 67.48867188 116 68 C117.11495116 70.9503323 118.36441956 73.78887926 119.76953125 76.609375 C124.70725445 86.57299503 128.10963755 96.25146464 131 107 C137.93 107.33 144.86 107.66 152 108 C152 122.52 152 137.04 152 152 C145.07 152.33 138.14 152.66 131 153 C130.195625 155.949375 129.39125 158.89875 128.5625 161.9375 C126.23555713 170.11859101 123.1195585 177.33685976 118.72094727 184.61694336 C116.52364041 188.11347616 116.52364041 188.11347616 116.3671875 192.078125 C118.81221089 194.95599943 121.41501221 197.62175198 124.125 200.25 C124.96998047 201.08144531 124.96998047 201.08144531 125.83203125 201.9296875 C127.21686028 203.29104485 128.60783204 204.64614859 130 206 C124.19316781 213.11905227 117.63714556 219.47374812 111.125 225.9375 C109.94768362 227.10979204 108.77059826 228.28231614 107.59375 229.45507812 C104.73182511 232.30606982 101.86678543 235.15389615 99 238 C95.04625813 234.66883385 91.18958143 231.31571444 87.5625 227.625 C86.88316406 226.93664062 86.20382813 226.24828125 85.50390625 225.5390625 C85.00761719 225.03117188 84.51132813 224.52328125 84 224 C81.0496677 225.11495116 78.21112074 226.36441956 75.390625 227.76953125 C65.42700497 232.70725445 55.74853536 236.10963755 45 239 C44.67 245.93 44.34 252.86 44 260 C29.48 260 14.96 260 0 260 C-0.495 249.605 -0.495 249.605 -1 239 C-3.949375 238.195625 -6.89875 237.39125 -9.9375 236.5625 C-18.11859101 234.23555713 -25.33685976 231.1195585 -32.61694336 226.72094727 C-36.11347616 224.52364041 -36.11347616 224.52364041 -40.078125 224.3671875 C-42.95599943 226.81221089 -45.62175198 229.41501221 -48.25 232.125 C-49.08144531 232.96998047 -49.08144531 232.96998047 -49.9296875 233.83203125 C-51.29104485 235.21686028 -52.64614859 236.60783204 -54 238 C-61.11905227 232.19316781 -67.47374812 225.63714556 -73.9375 219.125 C-75.10979204 217.94768362 -76.28231614 216.77059826 -77.45507812 215.59375 C-80.30606982 212.73182511 -83.15389615 209.86678543 -86 207 C-82.66883385 203.04625813 -79.31571444 199.18958143 -75.625 195.5625 C-74.93664062 194.88316406 -74.24828125 194.20382812 -73.5390625 193.50390625 C-73.03117187 193.00761719 -72.52328125 192.51132812 -72 192 C-73.11495116 189.0496677 -74.36441956 186.21112074 -75.76953125 183.390625 C-80.70725445 173.42700497 -84.10963755 163.74853536 -87 153 C-97.395 152.505 -97.395 152.505 -108 152 C-108 137.48 -108 122.96 -108 108 C-97.605 107.505 -97.605 107.505 -87 107 C-86.34 104.545625 -85.68 102.09125 -85 99.5625 C-82.54157051 90.86127867 -78.96161046 82.90747461 -74.88208008 74.85839844 C-73.81875969 72.61815632 -72.92096913 70.30242282 -72 68 C-76.62 63.38 -81.24 58.76 -86 54 C-82.0785569 49.42498305 -78.20779837 45.06749646 -73.9453125 40.84765625 C-73.39890106 40.30265976 -72.85248962 39.75766327 -72.28952026 39.19615173 C-70.57037942 37.48253882 -68.84776796 35.77246556 -67.125 34.0625 C-65.94768362 32.89020796 -64.77059826 31.71768386 -63.59375 30.54492188 C-60.73182511 27.69393018 -57.86678543 24.84610385 -55 22 C-51.04625813 25.33116615 -47.18958143 28.68428556 -43.5625 32.375 C-42.88316406 33.06335938 -42.20382813 33.75171875 -41.50390625 34.4609375 C-40.75947266 35.22277344 -40.75947266 35.22277344 -40 36 C-37.0496677 34.88504884 -34.21112074 33.63558044 -31.390625 32.23046875 C-21.42700497 27.29274555 -11.74853536 23.89036245 -1 21 C-0.67 14.07 -0.34 7.14 0 0 Z M-12 61 C-12 65.95 -12 70.9 -12 76 C-15.48307292 75.86979167 -18.96614583 75.73958333 -22.44921875 75.609375 C-26.5696687 76.06266982 -28.10787892 77.10251321 -31 80 C-32.50156874 83.00313748 -32.09281204 85.79067522 -32.0625 89.125 C-32.041875 91.39375 -32.02125 93.6625 -32 96 C-36.95 96 -41.9 96 -47 96 C-47 100.95 -47 105.9 -47 111 C-42.05 111 -37.1 111 -32 111 C-32 114.63 -32 118.26 -32 122 C-36.95 122 -41.9 122 -47 122 C-47 127.28 -47 132.56 -47 138 C-42.05 138 -37.1 138 -32 138 C-32 141.63 -32 145.26 -32 149 C-36.95 149 -41.9 149 -47 149 C-47 153.95 -47 158.9 -47 164 C-42.05 164 -37.1 164 -32 164 C-32.1953125 169.22460938 -32.1953125 169.22460938 -32.390625 174.44921875 C-31.93733018 178.5696687 -30.89748679 180.10787892 -28 183 C-24.99686252 184.50156874 -22.20932478 184.09281204 -18.875 184.0625 C-16.60625 184.041875 -14.3375 184.02125 -12 184 C-12 188.95 -12 193.9 -12 199 C-7.05 199 -2.1 199 3 199 C3 194.05 3 189.1 3 184 C6.63 184 10.26 184 14 184 C14 188.95 14 193.9 14 199 C19.28 199 24.56 199 30 199 C30 194.05 30 189.1 30 184 C33.63 184 37.26 184 41 184 C41 188.95 41 193.9 41 199 C45.95 199 50.9 199 56 199 C56 194.05 56 189.1 56 184 C59.48307292 184.13020833 62.96614583 184.26041667 66.44921875 184.390625 C70.5696687 183.93733018 72.10787892 182.89748679 75 180 C76.50156874 176.99686252 76.09281204 174.20932478 76.0625 170.875 C76.041875 168.60625 76.02125 166.3375 76 164 C80.95 164 85.9 164 91 164 C91 159.05 91 154.1 91 149 C86.05 149 81.1 149 76 149 C76 145.37 76 141.74 76 138 C80.95 138 85.9 138 91 138 C91 132.72 91 127.44 91 122 C86.05 122 81.1 122 76 122 C76 118.37 76 114.74 76 111 C80.95 111 85.9 111 91 111 C91 106.05 91 101.1 91 96 C86.05 96 81.1 96 76 96 C76.13020833 92.51692708 76.26041667 89.03385417 76.390625 85.55078125 C75.93733018 81.4303313 74.89748679 79.89212108 72 77 C68.99686252 75.49843126 66.20932478 75.90718796 62.875 75.9375 C59.471875 75.9684375 59.471875 75.9684375 56 76 C56 71.05 56 66.1 56 61 C51.05 61 46.1 61 41 61 C41 65.95 41 70.9 41 76 C37.37 76 33.74 76 30 76 C30 71.05 30 66.1 30 61 C24.72 61 19.44 61 14 61 C14 65.95 14 70.9 14 76 C10.37 76 6.74 76 3 76 C3 71.05 3 66.1 3 61 C-1.95 61 -6.9 61 -12 61 Z " fill="#C5DD6C" transform="translate(117,243)"/>
<path d="M0 0 C14.52 0 29.04 0 44 0 C44.33 6.93 44.66 13.86 45 21 C47.454375 21.66 49.90875 22.32 52.4375 23 C61.13872133 25.45842949 69.09252539 29.03838954 77.14160156 33.11791992 C79.38184368 34.18124031 81.69757718 35.07903087 84 36 C88.62 31.38 93.24 26.76 98 22 C102.57501695 25.9214431 106.93250354 29.79220163 111.15234375 34.0546875 C111.69734024 34.60109894 112.24233673 35.14751038 112.80384827 35.71047974 C114.51746118 37.42962058 116.22753444 39.15223204 117.9375 40.875 C119.10979204 42.05231638 120.28231614 43.22940174 121.45507812 44.40625 C124.30606982 47.26817489 127.15389615 50.13321457 130 53 C126.66883385 56.95374187 123.31571444 60.81041857 119.625 64.4375 C118.59246094 65.45650391 118.59246094 65.45650391 117.5390625 66.49609375 C117.03117188 66.99238281 116.52328125 67.48867187 116 68 C117.11495116 70.9503323 118.36441956 73.78887926 119.76953125 76.609375 C124.70725445 86.57299503 128.10963755 96.25146464 131 107 C137.93 107.33 144.86 107.66 152 108 C152 122.52 152 137.04 152 152 C145.07 152.33 138.14 152.66 131 153 C130.195625 155.949375 129.39125 158.89875 128.5625 161.9375 C126.23555713 170.11859101 123.1195585 177.33685976 118.72094727 184.61694336 C116.52364041 188.11347616 116.52364041 188.11347616 116.3671875 192.078125 C118.81221089 194.95599943 121.41501221 197.62175198 124.125 200.25 C124.96998047 201.08144531 124.96998047 201.08144531 125.83203125 201.9296875 C127.21686028 203.29104485 128.60783204 204.64614859 130 206 C124.19316781 213.11905227 117.63714556 219.47374812 111.125 225.9375 C109.94768362 227.10979204 108.77059826 228.28231614 107.59375 229.45507812 C104.73182511 232.30606982 101.86678543 235.15389615 99 238 C95.04625813 234.66883385 91.18958143 231.31571444 87.5625 227.625 C86.88316406 226.93664062 86.20382812 226.24828125 85.50390625 225.5390625 C85.00761719 225.03117188 84.51132812 224.52328125 84 224 C81.0496677 225.11495116 78.21112074 226.36441956 75.390625 227.76953125 C65.42700497 232.70725445 55.74853536 236.10963755 45 239 C44.67 245.93 44.34 252.86 44 260 C29.48 260 14.96 260 0 260 C-0.495 249.605 -0.495 249.605 -1 239 C-3.949375 238.195625 -6.89875 237.39125 -9.9375 236.5625 C-18.11859101 234.23555713 -25.33685976 231.1195585 -32.61694336 226.72094727 C-36.11347616 224.52364041 -36.11347616 224.52364041 -40.078125 224.3671875 C-42.95599943 226.81221089 -45.62175198 229.41501221 -48.25 232.125 C-49.08144531 232.96998047 -49.08144531 232.96998047 -49.9296875 233.83203125 C-51.29104485 235.21686028 -52.64614859 236.60783204 -54 238 C-61.11905227 232.19316781 -67.47374812 225.63714556 -73.9375 219.125 C-75.10979204 217.94768362 -76.28231614 216.77059826 -77.45507812 215.59375 C-80.30606982 212.73182511 -83.15389615 209.86678543 -86 207 C-82.66883385 203.04625813 -79.31571444 199.18958143 -75.625 195.5625 C-74.93664062 194.88316406 -74.24828125 194.20382813 -73.5390625 193.50390625 C-73.03117187 193.00761719 -72.52328125 192.51132813 -72 192 C-73.11495116 189.0496677 -74.36441956 186.21112074 -75.76953125 183.390625 C-80.70725445 173.42700497 -84.10963755 163.74853536 -87 153 C-97.395 152.505 -97.395 152.505 -108 152 C-108 137.48 -108 122.96 -108 108 C-97.605 107.505 -97.605 107.505 -87 107 C-86.34 104.545625 -85.68 102.09125 -85 99.5625 C-82.54157051 90.86127867 -78.96161046 82.90747461 -74.88208008 74.85839844 C-73.81875969 72.61815632 -72.92096913 70.30242282 -72 68 C-76.62 63.38 -81.24 58.76 -86 54 C-82.0785569 49.42498305 -78.20779837 45.06749646 -73.9453125 40.84765625 C-73.39890106 40.30265976 -72.85248962 39.75766327 -72.28952026 39.19615173 C-70.57037942 37.48253882 -68.84776796 35.77246556 -67.125 34.0625 C-65.94768362 32.89020796 -64.77059826 31.71768386 -63.59375 30.54492188 C-60.73182511 27.69393018 -57.86678543 24.84610385 -55 22 C-51.04625813 25.33116615 -47.18958143 28.68428556 -43.5625 32.375 C-42.88316406 33.06335937 -42.20382812 33.75171875 -41.50390625 34.4609375 C-40.75947266 35.22277344 -40.75947266 35.22277344 -40 36 C-37.0496677 34.88504884 -34.21112074 33.63558044 -31.390625 32.23046875 C-21.42700497 27.29274555 -11.74853536 23.89036245 -1 21 C-0.67 14.07 -0.34 7.14 0 0 Z M-12 61 C-12 65.95 -12 70.9 -12 76 C-15.48307292 75.86979167 -18.96614583 75.73958333 -22.44921875 75.609375 C-26.5696687 76.06266982 -28.10787892 77.10251321 -31 80 C-32.50156874 83.00313748 -32.09281204 85.79067522 -32.0625 89.125 C-32.041875 91.39375 -32.02125 93.6625 -32 96 C-36.95 96 -41.9 96 -47 96 C-47 100.95 -47 105.9 -47 111 C-42.05 111 -37.1 111 -32 111 C-32 114.63 -32 118.26 -32 122 C-36.95 122 -41.9 122 -47 122 C-47 127.28 -47 132.56 -47 138 C-42.05 138 -37.1 138 -32 138 C-32 141.63 -32 145.26 -32 149 C-36.95 149 -41.9 149 -47 149 C-47 153.95 -47 158.9 -47 164 C-42.05 164 -37.1 164 -32 164 C-32.1953125 169.22460938 -32.1953125 169.22460938 -32.390625 174.44921875 C-31.93733018 178.5696687 -30.89748679 180.10787892 -28 183 C-24.99686252 184.50156874 -22.20932478 184.09281204 -18.875 184.0625 C-16.60625 184.041875 -14.3375 184.02125 -12 184 C-12 188.95 -12 193.9 -12 199 C-7.05 199 -2.1 199 3 199 C3 194.05 3 189.1 3 184 C6.63 184 10.26 184 14 184 C14 188.95 14 193.9 14 199 C19.28 199 24.56 199 30 199 C30 194.05 30 189.1 30 184 C33.63 184 37.26 184 41 184 C41 188.95 41 193.9 41 199 C45.95 199 50.9 199 56 199 C56 194.05 56 189.1 56 184 C59.48307292 184.13020833 62.96614583 184.26041667 66.44921875 184.390625 C70.5696687 183.93733018 72.10787892 182.89748679 75 180 C76.50156874 176.99686252 76.09281204 174.20932478 76.0625 170.875 C76.041875 168.60625 76.02125 166.3375 76 164 C80.95 164 85.9 164 91 164 C91 159.05 91 154.1 91 149 C86.05 149 81.1 149 76 149 C76 145.37 76 141.74 76 138 C80.95 138 85.9 138 91 138 C91 132.72 91 127.44 91 122 C86.05 122 81.1 122 76 122 C76 118.37 76 114.74 76 111 C80.95 111 85.9 111 91 111 C91 106.05 91 101.1 91 96 C86.05 96 81.1 96 76 96 C76.13020833 92.51692708 76.26041667 89.03385417 76.390625 85.55078125 C75.93733018 81.4303313 74.89748679 79.89212108 72 77 C68.99686252 75.49843126 66.20932478 75.90718796 62.875 75.9375 C59.471875 75.9684375 59.471875 75.9684375 56 76 C56 71.05 56 66.1 56 61 C51.05 61 46.1 61 41 61 C41 65.95 41 70.9 41 76 C37.37 76 33.74 76 30 76 C30 71.05 30 66.1 30 61 C24.72 61 19.44 61 14 61 C14 65.95 14 70.9 14 76 C10.37 76 6.74 76 3 76 C3 71.05 3 66.1 3 61 C-1.95 61 -6.9 61 -12 61 Z " fill="#47BD7E" transform="translate(351,9)"/>
<path d="M0 0 C1.27141846 -0.00945648 2.54283691 -0.01891296 3.8527832 -0.02865601 C5.24170238 -0.02328631 6.63061873 -0.01713337 8.01953125 -0.01025391 C9.44295399 -0.01227479 10.86637572 -0.01518636 12.28979492 -0.01895142 C15.27239849 -0.02337412 18.25473246 -0.01694576 21.23730469 -0.00292969 C25.06088216 0.01416256 28.88382791 0.00432104 32.7073822 -0.01364708 C35.64649212 -0.02448659 38.58545222 -0.0210379 41.52456665 -0.0132637 C42.93437779 -0.01126214 44.34420253 -0.01371947 45.7539978 -0.02070236 C47.72401673 -0.02831864 49.69408334 -0.0146522 51.6640625 0 C52.78530518 0.00238678 53.90654785 0.00477356 55.06176758 0.00723267 C57.83203125 0.38818359 57.83203125 0.38818359 59.69326782 1.52694702 C61.35309358 4.23982691 61.21347109 6.38812454 61.22021484 9.55615234 C61.22967133 10.8275708 61.23912781 12.09898926 61.24887085 13.40893555 C61.24350116 14.79785473 61.23734821 16.18677107 61.23046875 17.57568359 C61.23248964 18.99910634 61.2354012 20.42252807 61.23916626 21.84594727 C61.24358896 24.82855084 61.2371606 27.8108848 61.22314453 30.79345703 C61.20605228 34.6170345 61.2158938 38.43998026 61.23386192 42.26353455 C61.24470144 45.20264447 61.24125274 48.14160457 61.23347855 51.08071899 C61.23147698 52.49053014 61.23393431 53.90035488 61.24091721 55.31015015 C61.24853348 57.28016908 61.23486704 59.25023568 61.22021484 61.22021484 C61.21782806 62.34145752 61.21544128 63.4627002 61.21298218 64.61791992 C60.83203125 67.38818359 60.83203125 67.38818359 59.69326782 69.24942017 C56.98038793 70.90924592 54.8320903 70.76962343 51.6640625 70.77636719 C50.39264404 70.78582367 49.12122559 70.79528015 47.8112793 70.80502319 C46.42236012 70.7996535 45.03344377 70.79350055 43.64453125 70.78662109 C42.22110851 70.78864198 40.79768678 70.79155355 39.37426758 70.7953186 C36.39166401 70.79974131 33.40933004 70.79331295 30.42675781 70.77929688 C26.60318034 70.76220462 22.78023459 70.77204615 18.9566803 70.79001427 C16.01757038 70.80085378 13.07861028 70.79740508 10.13949585 70.78963089 C8.72968471 70.78762933 7.31985997 70.79008665 5.9100647 70.79706955 C3.94004577 70.80468583 1.96997916 70.79101938 0 70.77636719 C-1.12124268 70.77398041 -2.24248535 70.77159363 -3.39770508 70.76913452 C-6.16796875 70.38818359 -6.16796875 70.38818359 -8.02920532 69.24942017 C-9.68903108 66.53654028 -9.54940859 64.38824265 -9.55615234 61.22021484 C-9.56560883 59.94879639 -9.57506531 58.67737793 -9.58480835 57.36743164 C-9.57943866 55.97851246 -9.57328571 54.58959612 -9.56640625 53.20068359 C-9.56842714 51.77726085 -9.5713387 50.35383912 -9.57510376 48.93041992 C-9.57952646 45.94781635 -9.5730981 42.96548238 -9.55908203 39.98291016 C-9.54198978 36.15933269 -9.5518313 32.33638693 -9.56979942 28.51283264 C-9.58063894 25.57372272 -9.57719024 22.63476262 -9.56941605 19.69564819 C-9.56741448 18.28583705 -9.56987181 16.87601231 -9.57685471 15.46621704 C-9.58447098 13.49619811 -9.57080454 11.52613151 -9.55615234 9.55615234 C-9.55376556 8.43490967 -9.55137878 7.31366699 -9.54891968 6.15844727 C-9.16796875 3.38818359 -9.16796875 3.38818359 -8.02920532 1.52694702 C-5.31632543 -0.13287873 -3.1680278 0.00674375 0 0 Z " fill="#C5DD6C" transform="translate(113.16796875,337.61181640625)"/>
<path d="M0 0 C1.27141846 -0.00945648 2.54283691 -0.01891296 3.8527832 -0.02865601 C5.24170238 -0.02328631 6.63061873 -0.01713337 8.01953125 -0.01025391 C9.44295399 -0.01227479 10.86637572 -0.01518636 12.28979492 -0.01895142 C15.27239849 -0.02337412 18.25473246 -0.01694576 21.23730469 -0.00292969 C25.06088216 0.01416256 28.88382791 0.00432104 32.7073822 -0.01364708 C35.64649212 -0.02448659 38.58545222 -0.0210379 41.52456665 -0.0132637 C42.93437779 -0.01126214 44.34420253 -0.01371947 45.7539978 -0.02070236 C47.72401673 -0.02831864 49.69408334 -0.0146522 51.6640625 0 C52.78530518 0.00238678 53.90654785 0.00477356 55.06176758 0.00723267 C57.83203125 0.38818359 57.83203125 0.38818359 59.69326782 1.52694702 C61.35309358 4.23982691 61.21347109 6.38812454 61.22021484 9.55615234 C61.22967133 10.8275708 61.23912781 12.09898926 61.24887085 13.40893555 C61.24350116 14.79785473 61.23734821 16.18677107 61.23046875 17.57568359 C61.23248964 18.99910634 61.2354012 20.42252807 61.23916626 21.84594727 C61.24358896 24.82855084 61.2371606 27.8108848 61.22314453 30.79345703 C61.20605228 34.6170345 61.2158938 38.43998026 61.23386192 42.26353455 C61.24470144 45.20264447 61.24125274 48.14160457 61.23347855 51.08071899 C61.23147698 52.49053014 61.23393431 53.90035488 61.24091721 55.31015015 C61.24853348 57.28016908 61.23486704 59.25023568 61.22021484 61.22021484 C61.21782806 62.34145752 61.21544128 63.4627002 61.21298218 64.61791992 C60.83203125 67.38818359 60.83203125 67.38818359 59.69326782 69.24942017 C56.98038793 70.90924592 54.8320903 70.76962343 51.6640625 70.77636719 C50.39264404 70.78582367 49.12122559 70.79528015 47.8112793 70.80502319 C46.42236012 70.7996535 45.03344377 70.79350055 43.64453125 70.78662109 C42.22110851 70.78864198 40.79768678 70.79155355 39.37426758 70.7953186 C36.39166401 70.79974131 33.40933004 70.79331295 30.42675781 70.77929688 C26.60318034 70.76220462 22.78023459 70.77204615 18.9566803 70.79001427 C16.01757038 70.80085378 13.07861028 70.79740508 10.13949585 70.78963089 C8.72968471 70.78762933 7.31985997 70.79008665 5.9100647 70.79706955 C3.94004577 70.80468583 1.96997916 70.79101938 0 70.77636719 C-1.12124268 70.77398041 -2.24248535 70.77159363 -3.39770508 70.76913452 C-6.16796875 70.38818359 -6.16796875 70.38818359 -8.02920532 69.24942017 C-9.68903108 66.53654028 -9.54940859 64.38824265 -9.55615234 61.22021484 C-9.56560883 59.94879639 -9.57506531 58.67737793 -9.58480835 57.36743164 C-9.57943866 55.97851246 -9.57328571 54.58959612 -9.56640625 53.20068359 C-9.56842714 51.77726085 -9.5713387 50.35383912 -9.57510376 48.93041992 C-9.57952646 45.94781635 -9.5730981 42.96548238 -9.55908203 39.98291016 C-9.54198978 36.15933269 -9.5518313 32.33638693 -9.56979942 28.51283264 C-9.58063894 25.57372272 -9.57719024 22.63476262 -9.56941605 19.69564819 C-9.56741448 18.28583705 -9.56987181 16.87601231 -9.57685471 15.46621704 C-9.58447098 13.49619811 -9.57080454 11.52613151 -9.55615234 9.55615234 C-9.55376556 8.43490967 -9.55137878 7.31366699 -9.54891968 6.15844727 C-9.16796875 3.38818359 -9.16796875 3.38818359 -8.02920532 1.52694702 C-5.31632543 -0.13287873 -3.1680278 0.00674375 0 0 Z " fill="#47BD7D" transform="translate(347.16796875,103.61181640625)"/>
<path d="M0 0 C1.33637644 0.47589677 2.67004312 0.95945609 4.0012207 1.44970703 C4.71429886 1.7075296 5.42737701 1.96535217 6.1620636 2.23098755 C7.65825428 2.77401162 9.15321353 3.32043968 10.64697266 3.87011719 C12.92747917 4.7076948 15.21294078 5.53051321 17.49926758 6.35205078 C18.95857117 6.88372751 20.41756673 7.41625064 21.8762207 7.94970703 C22.5554509 8.19357147 23.23468109 8.43743591 23.93449402 8.68869019 C31.03002283 11.32307913 31.03002283 11.32307913 33.23950195 13.83251953 C35.01687405 20.47455771 33.73167028 24.25924724 30.5402832 30.16455078 C30.14882614 30.92297775 29.75736908 31.68140472 29.35404968 32.46281433 C28.52700364 34.05516145 27.69020527 35.64247734 26.84423828 37.22485352 C25.55229875 39.64446367 24.29327925 42.07910105 23.03833008 44.51806641 C22.22835847 46.06787713 21.41657066 47.6167403 20.6027832 49.16455078 C20.22656326 49.88955276 19.85034332 50.61455475 19.46272278 51.36152649 C17.52324614 54.96330415 15.96061579 57.82841193 12.23950195 59.83251953 C8.34955129 60.31876336 6.17744737 60.44958888 2.86450195 58.27001953 C0.71631367 55.0477371 -0.30705019 52.6583845 0.23950195 48.83251953 C1.95480489 44.66678383 4.02034343 40.74981674 6.23950195 36.83251953 C-25.44116427 52.11084345 -54.19224196 72.70329044 -75.76049805 100.83251953 C-76.38988281 101.63931152 -76.38988281 101.63931152 -77.03198242 102.46240234 C-88.72632968 117.51140542 -97.57986918 133.86471798 -105.5690918 151.12548828 C-106.29909211 152.6947167 -107.02954546 154.26373446 -107.76049805 155.83251953 C-108.11257324 156.59773926 -108.46464844 157.36295898 -108.82739258 158.15136719 C-110.5023849 161.6767063 -111.45002957 163.62554055 -114.76049805 165.83251953 C-119.06683424 166.3907483 -121.08033042 166.27179446 -124.76049805 163.89501953 C-127.07309262 160.35385909 -126.92473327 158.53484568 -126.35327148 154.43481445 C-125.22573331 149.48488473 -123.05919492 145.02379889 -120.88549805 140.45751953 C-120.14891968 138.88574951 -120.14891968 138.88574951 -119.39746094 137.28222656 C-101.6920442 100.11016559 -74.55214553 66.5520546 -40.76049805 42.83251953 C-40.13224121 42.38618164 -39.50398438 41.93984375 -38.85668945 41.47998047 C-26.9579176 33.0804795 -14.26147845 25.35726283 -0.76049805 19.83251953 C-1.66413086 19.43419922 -2.56776367 19.03587891 -3.4987793 18.62548828 C-4.67827148 18.09568359 -5.85776367 17.56587891 -7.07299805 17.02001953 C-8.24475586 16.49794922 -9.41651367 15.97587891 -10.6237793 15.43798828 C-15.10106566 13.14637596 -15.10106566 13.14637596 -16.76049805 10.83251953 C-17.53719708 3.84222827 -17.53719708 3.84222827 -14.88549805 0.39501953 C-9.86549543 -3.29615887 -5.75208569 -1.78578678 0 0 Z " fill="#6FC878" transform="translate(198.760498046875,64.16748046875)"/>
<path d="M0 0 C3 1.9375 3 1.9375 5 5 C4.86482091 12.65263829 2.38259975 18.53176868 -0.875 25.375 C-1.61157837 26.94677002 -1.61157837 26.94677002 -2.36303711 28.55029297 C-9.5318714 43.60107371 -17.868031 57.76114309 -28 71 C-28.4444043 71.59248535 -28.88880859 72.1849707 -29.34667969 72.79541016 C-42.72819716 90.52662313 -58.94605129 107.03198075 -77 120 C-78.11092363 120.83779418 -79.22027286 121.67767969 -80.328125 122.51953125 C-92.90904788 131.94890588 -106.86891732 139.18383071 -121 146 C-119.64455078 146.59748047 -119.64455078 146.59748047 -118.26171875 147.20703125 C-117.08222656 147.73683594 -115.90273438 148.26664063 -114.6875 148.8125 C-113.51574219 149.33457031 -112.34398437 149.85664063 -111.13671875 150.39453125 C-106.65943239 152.68614357 -106.65943239 152.68614357 -105 155 C-104.23809524 161.85714286 -104.23809524 161.85714286 -106.625 165.4375 C-109.60099633 167.39539232 -111.43232813 167.74889377 -115 168 C-117.87779724 167.39205249 -120.57123466 166.39446118 -123.3203125 165.359375 C-124.10139374 165.07652649 -124.88247498 164.79367798 -125.68722534 164.5022583 C-127.3318362 163.90348174 -128.97399428 163.29793007 -130.61376953 162.68603516 C-133.11843151 161.75244834 -135.63043319 160.84142154 -138.14453125 159.93359375 C-139.74527218 159.34766526 -141.34554941 158.76046806 -142.9453125 158.171875 C-143.69330109 157.89986267 -144.44128967 157.62785034 -145.21194458 157.34759521 C-152.85682003 154.47677235 -152.85682003 154.47677235 -155 152 C-156.77737209 145.35796182 -155.49216832 141.57327229 -152.30078125 135.66796875 C-151.90932419 134.90954178 -151.51786713 134.15111481 -151.11454773 133.3697052 C-150.28750169 131.77735808 -149.45070332 130.19004219 -148.60473633 128.60766602 C-147.3127968 126.18805586 -146.05377729 123.75341848 -144.79882812 121.31445312 C-143.98885652 119.7646424 -143.1770687 118.21577923 -142.36328125 116.66796875 C-141.98706131 115.94296677 -141.61084137 115.21796478 -141.22322083 114.47099304 C-139.28198108 110.86594115 -137.71857483 108.01424751 -134 106 C-129.65819159 105.36846423 -127.70959928 105.54171713 -124 107.9375 C-121.5885175 111.63008257 -121.55006245 113.33576392 -122.26953125 117.57421875 C-123.52583078 121.74620809 -125.66029604 125.34798976 -128 129 C-96.31933378 113.72167608 -67.56825609 93.12922909 -46 65 C-45.37061523 64.19320801 -45.37061523 64.19320801 -44.72851562 63.37011719 C-31.1845575 45.94092144 -19.86580165 26.08472462 -12.203125 5.35546875 C-9.47224272 0.0089687 -5.73778435 -0.80530307 0 0 Z " fill="#9DD372" transform="translate(435,282)"/>
</svg>
