<?xml version="1.0" encoding="UTF-8"?>
<svg version="1.1" viewBox="0 0 2048 2048" width="1280" height="1280" xmlns="http://www.w3.org/2000/svg">
<path transform="translate(525,158)" d="m0 0h250l10 2 8 6 6 8 2 7v8l-4 10-10 15-12 17-13 19-4 10v7l3 10 7 8 9 4 20 3 30 5 23 6 16 6 16 8 13 8 10 8 10 9 12 15 9 16 8 19 6 22 4 24 3 33 1 46v89l4 16v104l-4 15-6 12-8 10-10 9-16 8-12 3-13 1h-51l-1 10-5 25-8 26-10 24-9 17-10 16-16 21-11 12-8 9-8 7-10 9-17 12v58l5 25 6 16 8 15 7 10 8 10 11 12 13 10 21 13 29 13 39 15 40 14 44 16 33 13 29 13 25 13 21 13 17 13 12 11 13 13 10 13 8 13 8 15 7 19 5 22 2 15 1 17v461l-2 10-6 9-9 6-14 2h-1094l-9-2-8-5-6-7-3-5v-490l7-30 6-18 8-16 9-15 8-10 12-14 13-12 13-10 18-12 23-13 29-14 37-15 30-11 56-20 32-12 29-12 16-8 15-9 13-10 17-17 9-13 9-16 7-17 3-11 4-26v-45l-1-3-5-2-12-9-14-12-21-21-11-14-11-15-9-15-11-21-10-26-6-21-5-28v-4h-53l-17-2-11-4-11-6-13-12-8-12-5-13-2-10v-103l4-16 1-12 1-162 4-31 6-25 5-16 8-21 10-20 12-20 9-12 11-14 11-12 17-17 11-9 13-10 21-14 25-14 24-11 25-9 24-7 28-6 18-3 21-2z" fill="#F8BB80"/>
<path transform="translate(1240,181)" d="m0 0h23l22 3 25 6 30 10 19 8 20 9 5 3 5-1 12-6 10-3 7-1h18l14 3 16 8 10 8 7 7 9 14 5 14 2 9 1 17 16 10 13 10 18 13 17 13 16 13 17 13 4-1 16-13 17-13 14-11 18-13 15-11 20-14 21-14 19-12 28-17 26-14 16-8 23-11 28-11 29-9 24-5 16-2h30l17 3 14 5 13 7 12 10 8 10 8 14 5 14 3 17v32l-4 24-5 20-9 27-13 31-7 14 1 5 7 14 4 14v23l-3 11-5 12-9 13-9 9-15 9-15 5-14 2h-12l-7 11-12 17-12 16-13 17-20 25-8 11 6 8 13 16 10 13 16 21 26 36 10 15 17 26 13 21 15 26 13 24 13 28 10 24 10 30 6 26 3 21v29l-3 17-5 15-8 14-11 12-7 6-14 8-14 5-14 3-8 1h-22l-24-3-24-6-30-10-26-11-15-7-3-2-4 1-16 8-17 4h-14l-15-3-12-5-12-8-11-11-8-13-6-16-2-18 1-7-15-11-14-10-19-14-13-10-14-11-15-12-9-7-6 4-15 12-17 13-15 12-36 26-19 13-26 17-21 13-19 11-18 10-25 13-29 13-27 10-24 7-31 6-10 1h-26l-18-3-12-4-15-8-12-10-8-10-8-14-4-10-4-18-1-11v-13l3-26 6-25 12-36 14-32 5-9-2-5-5-10-4-13-1-7v-13l3-15 6-14 8-11 6-7 12-9 13-6 11-3 7-1h13l8-11 11-16 14-19 14-18 12-15 10-13 6-7-1-5-10-12-11-14-20-26-14-19-12-17-26-39-13-21-10-17-10-18-14-27-10-21-11-28-7-21-6-24-4-26v-29l3-17 5-14 7-13 8-10 7-7 14-9 11-5 14-4zm697 63-19 3-29 9-24 10-25 12-20 10-48 28-33 22-11 7-12 9-17 12-21 16-14 11-12 9-4 4 14 12 15 14 8 7 17 16 15 15 8 7 28 28 7 8 18 18 7 8 16 17 7 8 8 9 4-2 10-13 11-14 13-17 12-17 12-16 2-2-1-5-4-11-3-12v-18l4-16 4-10 7-10 9-10 13-9 13-5 13-3h7l4-4 11-24 10-27 6-22 3-16 1-18-2-11-6-10-9-5-11-2zm-697 2-9 3-6 5-5 9-2 9v13l3 18 7 24 11 28 14 30 10 19 13 23 12 20 11 17 22 33 13 18 14 19 11 14 10 13 10 12 3-1 7-8 12-13 9-10 12-13 10-10 7-8 51-51 8-7 12-12 8-7 15-14 10-9 5-5-28-22-13-10-36-26-5-4-5 1-12 5-13 3h-19l-16-4-14-7-13-11-6-8-6-10-5-15-2-16v-4l-29-13-28-10-23-6-12-2zm357 202-7 7-8 7-15 14-8 7-13 12-12 12-3 2v2l-4 2-41 41v2h-2l-7 8-16 16-7 8-13 14-7 8-11 12v4l14 15 7 8 11 12 7 8 8 8 7 8 22 22 7 8 8 8h2v2l8 7 22 22 8 7 7 7 8 7 13 12 8 7 7 6 4-1 12-11 13-12 8-7 15-14 7-7 8-7 54-54 7-8 13-13 7-8 13-14 7-8 9-10v-3l-7-8-12-14-7-7-7-8-16-17-14-14-7-8-32-32-8-7-17-17-8-7-7-7-8-7-12-11-8-7-5-4zm-219 227-12 16-12 15-12 16-13 18-10 14-3 4 1 6 5 12 3 14v14l-3 15-6 14-7 10-7 8-10 7-15 7-12 3-15 1-6 12-11 27-9 27-5 23-1 9v13l3 12 5 7 10 5 10 2h12l18-3 20-6 19-7 21-9 29-14 24-13 22-13 21-13 33-22 36-26 26-20 18-14 2-4-17-16-8-7-17-16-8-8-8-7-20-20-8-7-7-7-7-8-20-20-7-8-8-8-7-8-15-16-8-10zm438 0-9 10-12 13-11 12-1 3h-2l-7 8-11 11-7 8-50 50-8 7-13 13-8 7-15 14-11 9-3 3 17 14 16 12 10 8 17 12 18 13 7 6 6-2 14-5 5-1h23l15 4 14 7 12 10 9 12 7 15 3 14v8l4 4 30 13 25 9 24 6 13 2h20l12-4 7-8 3-9 1-6v-11l-3-19-7-24-11-28-13-28-10-19-12-22-9-15-15-24-23-34-26-36-14-18-11-14-8-10z" fill="#7CD646"/>
<path transform="translate(804,1139)" d="m0 0 19 9 34 14 84 30 35 13 31 13 31 15 27 16 19 14 13 12 13 13 10 13 8 13 8 15 7 19 5 22 2 15 1 17v461l-2 10-6 9-9 6-14 2h-411l2-5 5-38 4-32v-17l-15-70-12-57-20-93-11-51-18-84v-11l10-24 15-37 12-30 11-27 3-9 7 6 14 13 8 7 8 8 8 7 9 9 8 7 13 12 2 3h2l3-27 2-12 3-24 3-27 2-14 2-19 4-33 2-12 2-19 2-12 3-26 1-12z" fill="#FDD206"/>
<path transform="translate(346,1139)" d="m0 0h2l1 15 6 52 19 152 2 15v5l8-7 12-12 8-7 16-15 8-8 8-7 14-13 6-4 3 9 11 28 12 29 11 27 14 35v11l-11 48-11 52-13 60-9 42-13 60-9 43-7 31-4 20v13l7 55 3 21h263v1h-677l-9-2-8-5-6-7-3-5v-490l7-30 6-18 8-16 9-15 8-10 12-14 13-12 13-10 18-12 23-13 29-14 37-15 30-11 56-20 32-12 29-12z" fill="#FDD206"/>
<path transform="translate(525,158)" d="m0 0h250l10 2 8 6 6 8 2 7v8l-4 10-10 15-12 17-13 19-4 10v7l3 10 7 8 9 4 20 3 30 5 23 6 16 6 16 8 13 8 10 8 10 9 12 15 9 16 8 19 6 22 4 24 3 33 1 46-1 86-4-5-9-12-10-9-16-8-11-3-8-1-55-1-3-7-5-15-6-11-9-12-11-10-14-8-14-5-15-3-42-1-15-3-15-5-16-8-42-28-14-8-18-7-14-3-7-1h-19l-20 4-17 6-18 10-39 26-19 10-16 5-14 2-39 1-17 3-13 5-8 4-12 9-8 8-10 15-6 15-4 12-57 1-14 3-12 5-13 9-9 10-7 10h-1l1-170 4-31 6-25 5-16 8-21 10-20 12-20 9-12 11-14 11-12 17-17 11-9 13-10 21-14 25-14 24-11 25-9 24-7 28-6 18-3 21-2z" fill="#221A16"/>
<path transform="translate(555,1214)" d="m0 0h23l20 1 3 2v4l6 3v2h2l5 5v2l4 2 11 10 5 3 3 3 5 3 10 9 8 8 8 7 8 8 8 7 11 11-1 9-4 9-12 29-12 30-11 27-10 24v11l13 61 14 65 23 107 19 89 7 33v17l-8 64-2 9-2 2-269-1-3-14-5-37-3-25v-13l10-48 8-36 13-60 9-43 7-32 16-74 9-42 5-21v-11l-14-35-11-27-16-39-8-21-1-8 10-9 16-15 15-14 8-8 8-7 16-15 9-6 14-14z" fill="#305274"/>
<path transform="translate(424,977)" d="m0 0 1 2 5 2 17 9 16 7 20 7 17 5 23 5 21 3 28 2 26-2 24-3 25-5 7-2 26-8 11-5 10-5 1-1h5v-2l6-4 8-3 7-2 1 53 5 25 6 16 8 15 7 10 8 10 11 12 13 10 17 11-2 20-3 25-2 13-2 18-2 13-3 26-4 33-3 27-5 36-3 27h-4l-7-8-8-7-16-15-17-16-15-14-8-7-22-22-8-7-8-8-8-7-9-9-5-4-5-3-3-3-5-3-11-10-7-6v-2h-2v-2l-6-3-1-4-2-1-20-1h-23l-5 3-14 14-7 4-9 9-8 7-16 15-8 8-8 7-7 7-16 14-5 6-8 7-10 9-15 14-8 8-8 7-16 15-9 9h-2l-5-36-19-152-5-44 1-8 16-10 11-9 16-16 9-13 9-16 7-17 3-11 4-26z" fill="#F8BC80"/>
<path transform="translate(555,1214)" d="m0 0h23l20 1 3 2v4l6 3v2h2l5 5v2l4 2 11 10 5 3 3 3 5 3 10 9 8 8 8 7 8 8 8 7 11 11-1 9-4 9-12 29-12 30-22 54-2 6-5-3h-53l-46-1-24-1-7-2-4-9-12-29-12-30-14-34-8-21-1-8 10-9 16-15 15-14 8-8 8-7 16-15 9-6 14-14z" fill="#294460"/>
<path transform="translate(410,1072)" d="m0 0h5l1 3 4 2 7 8 35 35 7 8 22 22 7 8 19 19 7 8 25 25 3 4-20 20-8 7-15 14-12 11-9 9-8 7-7 7-16 14-5 6-8 7-10 9-15 14-8 8-8 7-16 15-9 9h-2l-5-36-19-152-5-44 1-8 16-10 11-9 16-16 9-13 9-16z" fill="#E9F4FC"/>
<path transform="translate(737,1072)" d="m0 0 4 1 9 16 8 11 12 14 10 9 24 16-2 20-3 25-2 13-2 18-2 13-3 26-4 33-3 27-5 36-3 27h-4l-7-8-8-7-16-15-17-16-15-14-8-7-22-22-8-7-8-8-8-7-9-9-8-7-10-10-8-7-8-8-8-7-3-3 1-4 19-19 7-8 44-44 7-8 16-16 7-8 10-10 7-8 17-17z" fill="#E9F4FC"/>
<path transform="translate(1710,1287)" d="m0 0h52l260 1 9 3 6 4 8 11 3 6v17l-6 10-4 5-7 5-10 3h-347l-10-4-7-6-6-10-2-6v-12l5-12 5-6 12-7 3-1z" fill="#FB4744"/>
<path transform="translate(842,561)" d="m0 0 2 2 55 1 16 3 12 5 9 6 10 9 10 14 5 16 1 5v104l-4 15-6 12-8 10-10 9-16 8-12 3-13 1h-49l-1-2v-48l1-17v-148l2-4h-4z" fill="#DFA875"/>
<path transform="translate(306,559)" d="m0 0h1v6l-2 1-1 33 1 34v126l1 17v7l-3 1h-49l-17-2-11-4-11-6-13-12-8-12-5-13-2-10v-103l4-16 3-7 10-13 10-9 14-8 14-4 6-1h57z" fill="#DFA875"/>
<path transform="translate(424,977)" d="m0 0 1 2 5 2 17 9 16 7 20 7 17 5 23 5 21 3 28 2 26-2 24-3 25-5 7-2 26-8 11-5 10-5 1-1h5v-2l6-4 8-3 7-2 1 53 1 13-5 5-12 5-28 10-9 3-25 7-24 4-19 2-5 1-21 1h-27l-30-4-13-3-13-2-16-4-13-4-9-3-24-9-7-3v-2l-5-2-5 1 1-14 2-12z" fill="#DFA875"/>
<path transform="translate(1496,1417)" d="m0 0h45l173 1 10 4 9 8 6 12v16l-6 12-7 7-9 4-3 1-83 1h-143l-17-1-9-4-7-5-7-11-2-7v-10l5-13 5-6 7-5 8-3z" fill="#FB4744"/>
<path transform="translate(1418,209)" d="m0 0h18l14 3 16 8 10 8 7 7 9 14 5 14 2 9v20l-3 12-5 12-7 11-12 13-4 3-7 2-12 5-13 3h-19l-16-4-14-7-13-11-7-9-6-10-5-15-2-16 1-4h-2l2-10 6-18 9-14 9-10 5-4 7-3 10-5 10-3z" fill="#0892FD"/>
<path transform="translate(1758,899)" d="m0 0h23l15 4 14 7 13 11 9 12 7 15 3 14v8l1 6-4 18-5 12-8 12-8 9-24 12-17 4h-14l-15-3-12-5-12-8-11-11-8-13-6-16-2-18 1-7-1-3 6-18 6-11 8-10h2l2-4 11-9 5-1 12-5z" fill="#0892FD"/>
<path transform="translate(1247,725)" d="m0 0h17l15 4 17 9 12 11 8 8 2 7 5 12 3 14v14l-3 15-6 14-7 10-8 9-10 7-15 7-12 3-15 1-3 1-15-4-10-4-10-6-11-9-8-8-1-4-6-12-4-13-1-7v-13l3-15 6-14 8-11 6-7 12-9 13-6 11-3z" fill="#0892FD"/>
<path transform="translate(1944,381)" d="m0 0 9 1 16 5 16 8 13 10 4 4 2 6 7 14 4 14v23l-3 11-5 12-9 13-9 9-15 9-15 5-14 2h-15l-16-6-11-6-13-11-10-11-2-6-4-11-3-12v-18l4-16 4-10 7-10 9-10 12-9 11-5 17-4h7z" fill="#0892FD"/>
<path transform="translate(896,1632)" d="m0 0 13 1 10 5 7 7 4 8 1 4 1 32v46l-1 155h-63v-222l1-15 4-8 9-8 9-4z" fill="#BD9A01"/>
<path transform="translate(246,1632)" d="m0 0h8l9 2 9 6 6 7 3 6 1 5 1 230-1 2h-63v-215l1-24 4-7 9-7 8-4z" fill="#BD9A01"/>
<path transform="translate(1868,1417)" d="m0 0h128l27 1 9 4 8 7 6 9 2 4v17l-6 10-8 8-8 4-4 1-169 1-16-2-10-6-6-7-4-8-1-4v-12l4-10 7-9 8-5 6-2z" fill="#FB4844"/>
<path transform="translate(1487,1287)" d="m0 0h48l18 1 9 3 9 7 6 10 2 6v12l-5 12-6 7-9 5-7 2h-80l-9-3-10-9-5-8-2-7v-9l3-10 6-8 8-7 8-3z" fill="#FB4844"/>
<path transform="translate(653,1493)" d="m0 0 4 6 13 61 24 111 27 127v17l-1 7h-1l-1-13-2-1-1-19-3-7-2-13-3-8-3-15-4-16-1-6-4-17-2-10-3-17-3-12-4-17-3-17-5-22-2-13-2-6-6-29-5-25-3-16-2-9-1-6-2-10z" fill="#294461"/>
<path transform="translate(737,1072)" d="m0 0 4 1 9 16 8 11 12 14 10 9 24 16-1 13-2-4-5-3-4-6-8-4-11-9-8-7-13-14-3-6v-2l-3-1-8-12-1-9-3 3-2 6-1 2-5 3-4 2-2 4-8 9-8 7-3 3h-2l-2 5-10 10-12 11-7 8-9 9h-2v2l-7 6-6 7-8 7-10 10-7 8h-2v2l-8 7-4 2 6-7 9-9 7-8 44-44 7-8 16-16 7-8 10-10 7-8 17-17z" fill="#F7FAF4"/>
<path transform="translate(410,1072)" d="m0 0h5v3h-2l-8 15-2 7-3 1v2l-6 5-4 9-5 6-9 6-7 4-4 2v2l-3 2h-3l-1 3-4 2-2 4-2 1 1 17 2-4 1 14v13l2 10 2 5v17l1 7 3 3v22l3 7 1 25 2 6 2 3v23l3 12 1 20 2 13 2 4-1 5 3 4 5-4 2 1-9 9h-2l-5-36-19-152-5-44 1-8 16-10 11-9 16-16 9-13 9-16z" fill="#FCFCFC"/>
<path transform="translate(735,1073)" d="m0 0m-1 1v3l-1 5-2 4-5 3-4 2-2 4-8 9-8 7-3 3h-2l-2 5-10 10-12 11-7 8-9 9h-2v2l-7 6-6 7-8 7-10 10-7 8h-2v2l-8 7-4 2 6-7 9-9 7-8 44-44 7-8 16-16 7-8 10-10 7-8z" fill="#FDFDFD"/>
<path transform="translate(716,1828)" d="m0 0 2 3-1 16-5 38-5 3h-81v-1l41-1 15-1v-1h11v-2l10-1-1-4 5-8 3-11 2-3 1-15z" fill="#294461"/>
<path transform="translate(410,1072)" d="m0 0h5v3h-2l-8 15-2 7-3 1v2l-6 5-4 9-5 6-9 6-7 4-4 2v2l-3 2h-3l-1 3-4 2-2 4-4 2-1-1 1-8 16-10 11-9 16-16 9-13 9-16z" fill="#F8F9F2"/>
<path transform="translate(800,1159)" d="m0 0h1l-1 19-3 19-2 18-2 13-3 26-4 33-3 27-4 31h-1l1-22 3-19v-20l2-6 1-8v-20l2-4 1 1 1-3h-2l2-13v-15l2-4h1l2-14 1-10 2-7 2-18z" fill="#FDFDFD"/>
<path transform="translate(568,1212)" d="m0 0h17l15 1 7 8 12 11 17 16 3 4-4-2-3-3-5-3-11-10-7-6v-2h-2v-2l-6-3-1-4-2-1-20-1h-23l-5 3-14 14-2-1 17-17 3-1z" fill="#B3A35E"/>
<path transform="translate(416,1075)" d="m0 0 4 2 7 8 35 35 7 8 22 22-1 2-38-38-8-7-11-11-7-8-3-3v-2l-4-2-3-4z" fill="#FDFDFD"/>
<path transform="translate(195,602)" d="m0 0h2l-2 6-1 2v5l-1 5-3 27v8l-2 8h-1v-41l4-16z" fill="#F8BC81"/>
<path transform="translate(786,1246)" d="m0 0 4 1-1 13-2 21-2 13-2 20-4 31h-1l1-22 3-19v-20l2-6 1-8v-20z" fill="#FCFCFC"/>
<path transform="translate(189,730)" d="m0 0 2 4 5 8 3 7 3 3 3 5 6 5v2h2l3 3v2l4 1 7 6 2 1-1 2-13-7-13-12-8-12-5-13z" fill="#F8BC80"/>
<path transform="translate(369,1319)" d="m0 0h2l2 7 1 20 2 13 2 4-1 5 3 4 5-4 2 1-9 9h-2l-5-36-2-15z" fill="#FDFDFD"/>
<path transform="translate(738,1344)" d="m0 0 6 2 4 5 4 3v2l5 2 8 5 2 5 5 5 1 2 2-3v5h-4l-7-8-8-7-16-15z" fill="#FDFDFD"/>
<path transform="translate(601,1218)" d="m0 0 11 7 13 13 8 7 6 7-4-2-3-3-5-3-11-10-7-6v-2h-2v-2l-6-3z" fill="#54905F"/>
<path transform="translate(495,1156)" d="m0 0 7 6 15 15 7 8 25 25-1 2-7-7-6-5-7-8-17-17v-2l-3-1-7-8-6-6z" fill="#FDFDFD"/>
<path transform="translate(604,1208)" d="m0 0 2 4 1 3 5 2 4 5 1 5-6-2-8-7-3-3 1-4z" fill="#FBFCFC"/>
<path transform="translate(710,1886)" d="m0 0v3l-1 1-82-1v-1l80-1z" fill="#315375"/>
<path transform="translate(953,601)" d="m0 0 2 1v2h2l4 13 1 5v24h-1l-1-16-1-10-6-12z" fill="#F8BB80"/>
<path transform="translate(933,576)" d="m0 0 8 6 9 10 3 6-3 1v-2h-2l-2-2v-4h-2v-2h-2v-2h-2v-2h-2v-2l-4-2-3-2v-2z" fill="#F4A273"/>
<path transform="translate(486,1275)" d="m0 0 2 1-6 6 1 6-4 2-2 4-4 4-2-1 2-5 2-1v-2l-2-1z" fill="#427067"/>
<path transform="translate(716,1828)" d="m0 0 2 3-1 16-1 8h-3l-1-6 2-14z" fill="#284360"/>
<path transform="translate(953,747)" d="m0 0 1 2-7 11-9 9-5 3 2-4 7-8h2l2-5 3-1 1-4z" fill="#F7BC80"/>
<path transform="translate(359,1225)" d="m0 0 3 3v11l-1 8-2-1-2-15v-5z" fill="#FCFCFC"/>
<path transform="translate(375,1367)" d="m0 0 5 5 5-4 2 1-9 9h-2z" fill="#FDFDFD"/>
<path transform="translate(471,1289)" d="m0 0 2 1-15 16h-2l1-4 8-7z" fill="#5DA153"/>
<path transform="translate(372,1346)" d="m0 0h2l2 13 2 4-1 4h-2l-2-9z" fill="#FCFCFC"/>
<path transform="translate(214,577)" d="m0 0 2 1-15 15-2-1 11-12z" fill="#F08D68"/>
<path transform="translate(218,576)" d="m0 0 2 1-4 2-2 5-2 2-4-1 8-8z" fill="#F8BB80"/>
<path transform="translate(469,1296)" d="m0 0 2 1-1 5-3 3-3-1 1-4z" fill="#315375"/>
<path transform="translate(198,594)" d="m0 0 2 4-4 2-2 4-2 1 1-4z" fill="#F1986E"/>
<path transform="translate(650,1480)" d="m0 0h3v11l-3-4z" fill="#294563"/>
</svg>
