<?xml version="1.0" encoding="UTF-8"?>
<svg version="1.1" viewBox="0 0 2048 2048" width="1280" height="1280" xmlns="http://www.w3.org/2000/svg">
<path transform="translate(873,222)" d="m0 0h276l2 5 20 120 1 5 21 6 31 9 17 6 1 3-8 22-1 5 7 1 20 8 28 12 5 2 1-5 8-16 2-5 5 1 32 16 24 14 7 4 4-2 17-12 18-13 14-10 17-12 18-13 11-8 7-5h5l9 10 5 5 3 2v2h2v2h2v2h2v2h2l6 7 6 5 6 7 6 5 6 7 6 5 6 7 6 5 6 7 6 5 6 7 6 5 6 7 6 5 6 7 6 5 6 7 6 5 7 8 53 53-4 7-12 17-13 18-20 28-13 18-12 17-2 4 12 21 12 22 15 30 12 28 11 29 11 34 8 30 2 6 125 21 5 2v275l-4 2-114 19-13 2-3 15-8 28-12 36-12 30-15 33-8 15-8 16-14 24-1 6 12 17 13 18 10 14 13 18 24 34 3 4-2 4-192 192-5-2-16-11-18-13-17-12-18-13-14-10-18-13-1-1h-5l-13 8-22 12-23 12-26 12-27 11-34 12-30 9-22 6h-2l-1 11-19 115-1 4-2 1h-274l-2-3-19-115-2-12-9-3-35-10-41-14-29-12-24-11-28-14-23-13-10-6-5 1-28 20-18 13-14 10-18 13-17 12-8 6-4-1-193-193 2-5 13-18 12-17 13-18 12-17 13-18 10-14v-4l-15-26-14-27-8-16-11-25-12-31-12-36-10-37-6-2-122-20-3-3v-273l2-2 34-6 92-15 3-2 10-36 12-37 11-28 10-23 16-33 8-14 6-11 10-17-7-11-26-36-12-17-13-18-12-17-6-9 2-4 13-12 3-4h2l2-4 171-171 6 1 36 26 14 10 17 12 18 13 17 12 3 1 24-14 28-15 25-12 31-13 36-13 30-9 23-6 3-2 21-126z" fill="#FEE763"/>
<path transform="translate(984,570)" d="m0 0h52l32 3 32 5 26 6 30 9 27 10 24 11 16 8 20 11 19 12 20 14 14 11 14 12 10 9 6 5v2l4 2 8 8 7 8 11 12 9 11 14 18 18 27 13 22 12 23 10 23 9 24 9 29 6 25 6 37 3 33v45l-2 26-5 35-6 28-7 25-9 26-11 26-11 23-13 23-15 23-10 14-14 18-10 11-7 8-9 10-15 15-8 7-14 12-14 11-18 13-17 11-21 12-23 12-20 9-29 11-27 8-25 6-28 5-27 3-15 1h-47l-25-2-35-5-32-7-29-9-20-7-26-11-26-13-21-12-18-12-13-9-13-10-13-11 1-4 9-10 7-8v-4l-4-2-8-7-13-12-8-9-5-5-4-5-8 8-8 7-6 4-5-5-12-14-13-18-14-21-14-24-9-17-14-32-11-31-7-25-6-28-4-26-2-17-1-16v-50l3-31 4-27 6-27 7-25 10-29 10-23 12-25 14-24 10-16 10-14 9-12 11-13 9-11 7-7 7-8 11-11 8-7 13-12 14-11 13-10 16-11 19-12 22-12 29-14 34-13 34-10 39-8 33-4z" fill="#A2FCF3"/>
<path transform="translate(873,222)" d="m0 0h276l2 5 20 120 1 5 21 6 31 9 17 6 1 3-9 24-7 20-4 9-9-2-29-9-36-9-27-6-3-4-19-113v-4h-124l-50 1-7 39-11 65-3 15-9 3-39 9-35 10-35 12-28 11-29 14-22 12-21 12-19 12-14 9-5 2-19-13-18-13-34-24-18-13-8-6-5 1-120 120 1 4 8 10 13 19 14 19 12 17 13 18 9 12-1 5-11 17-12 19-13 23-10 18-13 27-8 19-9 24-9 27-11 42-8 34-4 3-81 14-36 6v174l10 1 88 15 22 4 2 6 9 37 7 27 8 25 8 24 13 31 12 25 12 23 13 22 12 19 10 15-1 5-8 10-13 19-12 16-13 19-12 16-10 14-1 4 15 14 106 106 3 1 13-10 20-14 18-13 14-10 17-12 16-11 11 6 22 14 24 14 16 9 16 8 21 10 33 13 25 9 31 9 37 9 19 4 2 5 15 89 5 27h174l1-10 17-101 2-9 15-4 48-12 39-12 37-14 34-16 28-15 25-15 19-12 10-6 7 4 15 11 17 12 36 26 23 16h4l120-120-1-5-11-15-13-19-9-12-12-17-13-18-9-13 1-7 14-22 13-22 13-23 17-34 11-26 10-28 10-32 12-49 3-14 6-2 101-17 13-3 1-1v-173l-10-1-64-11-44-7-3-2-7-30-11-42-13-40-13-32-15-32-12-22-10-17-15-24-7-11-1-1 1-7 13-19 12-16 13-19 12-16 11-16 6-8-1-5-120-120-7 4-17 12-15 11-17 12-14 10-18 13-10 7-4 1-17-11-19-12-35-20-16-8-5-2 1-7 12-27 8-16 2-5 5 1 32 16 24 14 7 4 4-2 17-12 18-13 14-10 17-12 18-13 11-8 7-5h5l9 10 5 5 3 2v2h2v2h2v2h2v2h2l6 7 6 5 6 7 6 5 6 7 6 5 6 7 6 5 6 7 6 5 6 7 6 5 6 7 6 5 6 7 6 5 6 7 6 5 7 8 53 53-4 7-12 17-13 18-20 28-13 18-12 17-2 4 12 21 12 22 15 30 12 28 11 29 11 34 8 30 2 6 125 21 5 2v275l-4 2-114 19-13 2-3 15-8 28-12 36-12 30-15 33-8 15-8 16-14 24-1 6 12 17 13 18 10 14 13 18 24 34 3 4-2 4-192 192-5-2-16-11-18-13-17-12-18-13-14-10-18-13-1-1h-5l-13 8-22 12-23 12-26 12-27 11-34 12-30 9-22 6h-2l-1 11-19 115-1 4-2 1h-274l-2-3-19-115-2-12-9-3-35-10-41-14-29-12-24-11-28-14-23-13-10-6-5 1-28 20-18 13-14 10-18 13-17 12-8 6-4-1-193-193 2-5 13-18 12-17 13-18 12-17 13-18 10-14v-4l-15-26-14-27-8-16-11-25-12-31-12-36-10-37-6-2-122-20-3-3v-273l2-2 34-6 92-15 3-2 10-36 12-37 11-28 10-23 16-33 8-14 6-11 10-17-7-11-26-36-12-17-13-18-12-17-6-9 2-4 13-12 3-4h2l2-4 171-171 6 1 36 26 14 10 17 12 18 13 17 12 3 1 24-14 28-15 25-12 31-13 36-13 30-9 23-6 3-2 21-126z" fill="#020001"/>
<path transform="translate(984,570)" d="m0 0h52l32 3 32 5 26 6 30 9 27 10 24 11 16 8 20 11 19 12 20 14 14 11 14 12 10 9 6 5v2l4 2 8 8 7 8 11 12 9 11 14 18 18 27 13 22 12 23 10 23 9 24 9 29 6 25 6 37 3 33v45l-2 26-5 35-6 28-7 25-9 26-11 26-11 23-13 23-15 23-10 14-14 18-10 11-7 8-9 10-15 15-8 7-14 12-14 11-18 13-17 11-21 12-23 12-20 9-29 11-27 8-25 6-28 5-27 3-15 1h-47l-25-2-35-5-32-7-29-9-20-7-26-11-26-13-21-12-18-12-13-9-13-10-13-11 1-4 9-10 7-8 11-13 8-10 4 1 14 11 18 13 19 12 18 10 15 8 28 12 33 11 28 7 30 5 32 3h35l34-3 30-5 25-6 29-9 25-10 25-12 25-14 19-13 21-16 15-13 4-2v-2l8-7 9-9 1-2h2l2-4 13-14 13-17 12-17 12-19 12-22 10-21 9-23 7-21 8-32 5-31 3-36v-23l-2-30-4-29-6-28-9-30-9-24-11-24-11-21-13-21-12-17-14-18-13-15-9-9v-2l-4-2v-2l-4-2-10-10-11-9-16-13-16-11-19-12-22-12-23-11-29-11-22-7-26-6-23-4-29-3-20-1h-16l-31 2-28 4-29 6-30 9-26 10-26 12-20 11-19 12-17 12-14 11-14 12-9 9-8 7-11 12-9 10-11 14-12 16-11 17-10 17-12 23-11 26-11 33-7 28-5 29-3 30v41l3 32 4 24 6 27 10 32 12 29 8 17 13 23 12 19 14 19 9 11 5 6-2 4-12 11-10 8-15 14-5 3-5-5-12-14-13-18-14-21-14-24-9-17-14-32-11-31-7-25-6-28-4-26-2-17-1-16v-50l3-31 4-27 6-27 7-25 10-29 10-23 12-25 14-24 10-16 10-14 9-12 11-13 9-11 7-7 7-8 11-11 8-7 13-12 14-11 13-10 16-11 19-12 22-12 29-14 34-13 34-10 39-8 33-4z" fill="#010001"/>
<path transform="translate(1787)" d="m0 0h37l24 6 19 7 18 10 13 10 13 12 10 12 10 15 9 19 6 19 3 17 1 22-3 24-5 18-7 16-8 15-12 16-16 16-14 10-16 9-17 7-13 4h-3v499l-1 1h-92v-60h28l4-1v-438l-24-8-16-8-16-10-12-11-6-5-9-11-10-14-8-16-6-15-5-21-1-8v-28l4-22 7-21 10-19 12-17 18-18 14-10 14-8 13-6 15-5z" fill="#040202"/>
<path transform="translate(212,1276)" d="m0 0h72v59l-11 1v427l17 5 17 7 15 9 12 9 13 12 11 13 10 16 8 16 6 19 3 16 1 9v21l-3 20-6 20-10 21-8 12-7 9-9 10-11 10-15 10-17 9-27 9-14 3h-33l-25-6-19-7-15-8-14-10-14-12-12-14-10-15-9-19-5-15-4-19-1-9v-21l4-24 6-18 9-19 8-12 8-10 10-11 11-9 11-8 14-8 21-8 11-3z" fill="#010001"/>
<path transform="translate(1250,1756)" d="m0 0h60v124l307-1 1-7 5-17 8-18 9-15 13-16 11-11 16-12 16-9 14-6 17-5 12-2 12-1h17l17 2 19 5 15 6 17 9 12 9 10 9 6 5 11 14 10 15 7 15 6 18 4 20 1 21-2 19-5 21-6 15-8 16-10 14-9 10-12 12-14 10-16 9-21 8-25 6h-33l-28-7-20-8-18-11-10-8-10-9-10-11-11-16-8-15-7-19-1-4h-346l-23-1z" fill="#020001"/>
<path transform="translate(228)" d="m0 0h37l21 5 20 7 17 9 16 12 12 11 11 13 11 17 8 17 7 22v3h366l1 1v180l-1 1h-58l-1-1v-121h-308l-3 11-5 14-8 16-11 16-11 12-8 8-13 10-16 9-16 7-17 5-17 3h-32l-21-4-20-7-17-9-14-10-10-9-13-13-12-17-8-16-7-19-4-18-1-8v-26l3-19 5-17 7-16 6-11 10-14 9-10 11-11 17-12 12-7 15-6 12-4z" fill="#020101"/>
<path transform="translate(831,865)" d="m0 0h100l1 1v313h-59l-1-56v-54l-1-1h-89v104l-1 7h-58l-1-48v-56l1-209z" fill="#010001"/>
<path transform="translate(997,865)" d="m0 0h193l1 1v200h-149l-1 106-1 7h-59v-313z" fill="#010001"/>
<path transform="translate(851,663)" d="m0 0h2l-1 4-6 7-3 6-7 7-19 14-15 13-6 5-7 8-11 11-9 11-11 13-8 11-13 19-13 21-12 22-7 15-8 19-6 16-7 21-7 31-4 23-2 18-2 45v20l3 32 1 14 3 11 2 15 2 6 2 12 2 5 2 10 7 21 3 5 6 17 14 29 10 19 14 22 10 13 8 11 13 16 13 14v2l3 1 7 8 11 11 16 14v2l4 2 10 9 14 10 9 7 5 3 1 4-7-1-26-12-23-13-19-12-18-13-11-9-4-3h-3l-8 10-9 10h-2v-2l-4-2-8-7-13-12-8-9-8-8v-4l10-8 10-9-2-4-13-16-13-18-15-24-12-22-10-22-10-26-9-30-7-33-4-32-1-14v-41l4-37 5-27 8-30 10-29 11-25 8-15 6-11 8-14 11-16 11-15 8-10 13-15 7-7 7-8 13-12 11-10 14-11 18-13 19-12 21-12z" fill="#AEEEF2"/>
<path transform="translate(1751,1820)" d="m0 0h18l17 4 17 8 12 9 9 9 9 14 6 14 3 10 1 8v17l-4 17-7 16-8 11-9 10-14 10-13 6-13 4-7 1h-12l-17-2-12-4-12-6-12-9-10-10-9-14-6-15-3-15v-18l3-15 5-13 6-10 8-10 7-7 10-7 15-8 14-4z" fill="#E1FD8A"/>
<path transform="translate(236,60)" d="m0 0h23l16 4 16 8 11 8 10 10 9 14 6 13 3 11 1 7v18l-4 17-6 14-9 13-6 7-14 11-17 8-13 4-7 1-22-1-18-5-13-7-12-9-8-8-10-15-6-16-3-15v-17l2-12 4-12 8-14 7-9 10-10 16-10 15-6z" fill="#E1FE8A"/>
<path transform="translate(1800,60)" d="m0 0h13l17 3 16 7 12 8 10 9 10 14 6 12 4 12 2 11v16l-3 15-7 16-9 14-7 8h-2v2l-15 10-16 7-16 4h-16l-15-3-13-5-11-6-9-7-7-6-10-13-7-15-4-14-1-6v-16l3-15 4-12 7-13 7-9 9-9 14-9 13-6 11-3z" fill="#E04693"/>
<path transform="translate(240,1820)" d="m0 0 17 1 14 4 16 8 13 10 10 11 9 16 6 18 1 6v21l-4 16-8 17-8 11-10 10-14 9-14 6-15 4h-20l-14-3-16-7-11-7-10-9-9-10-7-12-6-18-2-13v-9l3-17 6-16 7-12 8-10 8-7 13-8 11-5 14-4z" fill="#E04793"/>
<path transform="translate(547,438)" d="m0 0 5 1 18 13 4 4-4-1-8 7-90 90-1 2h-2l-1 6 12 17 8 11 20 28 12 17 10 14 9 13v5l-7 10-12 20-12 21-8 16-13 28-11 27-11 30-9 31-7 28-4 12-3 3-21 4-24 3-2-1 1-8 11-44 9-29 9-24 11-26 14-29 14-25 10-17 21-33-1-4-14-19-10-14-12-17-13-18-14-20-6-7 1-4z" fill="#FEAD4A"/>
<path transform="translate(399,1149)" d="m0 0 29 5 16 3 3 8 11 43 12 36 10 27 8 18 11 24 11 22 14 24 10 17 5 8v5h-2l-2 5-13 18-12 17-12 16-8 12-8 11-10 14-4 6 1 5 12 12 6 5 6 7 16 16 6 5 6 7 6 5 6 7 6 5v2h2v2h2l6 7 2 1v2h2v2h2l4 4v2h2l7 7 1 5-14 10-6 4-8-7-109-109-7-6 1-4 12-16 13-19 14-19 12-17 13-18 5-7-1-4-16-25-15-25-14-26-11-22-15-36-12-36-7-24-9-36 1-4z" fill="#FEAD4A"/>
<path transform="translate(1241,868)" d="m0 0h59v311h-59z" fill="#010001"/>
<path transform="translate(1518,764)" d="m0 0h5l8 16 9 20 9 23 12 36 10 38 7 38 4 35 3 46v7l-2 1h-55l-2-1-5-58-3-23-4-23-7-30-8-27-7-20-10-24-11-24-1-5 19-10z" fill="#FEFEFE"/>
<path transform="translate(317,928)" d="m0 0h2v191l-21-3-28-5-1-2v-170l3-3z" fill="#FEAD4A"/>
<path transform="translate(784,925)" d="m0 0 88 1 1 1v79l-1 1-66 1h-21l-3-1v-81z" fill="#A1FCF2"/>
<path transform="translate(236,60)" d="m0 0h18v1l-7 1-9 10-9 14-8 17-6 21-1 8v26l5 21 5 13 7 14 8 11 7 8 3 2h-16l-18-5-13-7-12-9-8-8-10-15-6-16-3-15v-17l2-12 4-12 8-14 7-9 10-10 16-10 15-6z" fill="#55DC79"/>
<path transform="translate(1751,1820)" d="m0 0h9l1 2-8 7-8 10-10 19-6 18-3 16v27l5 20 5 14 10 18 12 14 1 2h-15l-15-4-14-7-12-9-10-10-9-14-6-15-3-15v-18l3-15 5-13 6-10 8-10 7-7 10-7 15-8 14-4z" fill="#55DC79"/>
<path transform="translate(240,1820)" d="m0 0 17 1v1l-17 1-12 17-7 12-7 18-3 11-1 7v32l6 24 5 12 8 14 10 12 3 4 11 1v1h-20l-14-3-16-7-11-7-10-9-9-10-7-12-6-18-2-13v-9l3-17 6-16 7-12 8-10 8-7 13-8 11-5 14-4z" fill="#863594"/>
<path transform="translate(1800,60)" d="m0 0h13v1l-8 1-10 12-11 19-6 15-3 11-2 19v13l2 16 6 21 8 16 7 10 6 7 5 5 8 1v1h-16l-15-3-13-5-11-6-9-7-7-6-10-13-7-15-4-14-1-6v-16l3-15 4-12 7-13 7-9 9-9 14-9 13-6 11-3z" fill="#863594"/>
<path transform="translate(1041,926)" d="m0 0h90v79l-89 1-1-1z" fill="#A2FCF4"/>
<path transform="translate(975,281)" d="m0 0h108l16 1-1 3v-2h-124l-6 36-6 38-5 20-11 4-33 8-6-1-1 3 2-16 14-82 2-10 1-1z" fill="#FEAD4A"/>
<path transform="translate(906,1656)" d="m0 0 2 2 2-1 27 8 17 4 3 1 5 27 10 60 1 7 124 1v1h-172l-2-5-17-100z" fill="#FEAD4A"/>
<path transform="translate(1450,658)" d="m0 0 4 2 6 7v2l3 1 12 16 11 15 3 6-3 3-18 11-25 17-5-1-8-11-14-19-8-10 1-5 13-10 13-11 14-12z" fill="#FEFEFE"/>
<path transform="translate(1361,570)" d="m0 0 4 2 12 11 10 8 13 12 7 6-1 4-17 17-7 8-14 14-4-2-13-12-8-7-10-8-7-6 2-5 10-13 9-12 9-11z" fill="#FEFEFE"/>
<path transform="translate(715,1372)" d="m0 0 8 1 13 11 17 12 18 12 15 9 3 3 27 14 20 9 26 10 29 9 25 6 35 6 23 3 5 1v1l-21 1-13-2-7-1h-10l-17-2-15-3-18-5-20-6-15-5-21-8-13-6-12-6-20-11-21-14-11-8v-2l-5-2-4-3v-2l-4-2-11-9-6-7z" fill="#FEF25D"/>
<path transform="translate(926,571)" d="m0 0 2 4v3l-31 7-31 9-29 11-26 12-25 13-21 13-16 11-12 9-14 11-10 9-8 7-16 15-7 7-7 8-9 10-11 14-9 11-16 24-3 3 1-7 7-9 2-1 1-5 1-2h2l2-4 5-9 6-9h2l2-5 6-7h2l2-4 4-5h2l2-4h2l2-4 6-7 9-9h2l1-3 7-5 5-5 8-7 5-5 16-13 15-11 17-11 17-10 16-9h3v-2l11-5 15-7 7-3 32-12 37-9 11-2h5z" fill="#FEED5C"/>
<path transform="translate(1695,928)" d="m0 0 13 1 18 2 27 5 1 2v171l-2 2-8 2h-11l3-6 7-4 2-10v-20l1-27v-14l-1-25-2-26v-33l-3-5-14-6-13-2-18-5z" fill="#FEE75A"/>
<path transform="translate(566,1121)" d="m0 0 3 1 7 28 12 36 12 28 8 17 13 23 11 18 14 20 10 13 11 13v3l-4 1-6-2v-2l-4-2-7-9-12-17-7-11-3-6-7-9-4-10-8-10-9-16-9-21-8-21-1-9-3-4-1-8-3-9-4-10-2-13-2-3 1-7z" fill="#FEEC5B"/>
<path transform="translate(1167,595)" d="m0 0 7 1 11 2 30 12 22 11 5 3 36 24 11 8 8 7 10 8v2h2v2l4 2v2l4 2 1 4 5 5-1 4-9-9-11-9-13-11-14-10-24-16-15-9-24-13-29-13-18-7z" fill="#FEED5B"/>
<path transform="translate(1087,283)" d="m0 0h11l2 3 12 72v15l-2 5-4-2-2-10-2-11-3-9-2-14-3-13v-9l-3-15-8-8v-3z" fill="#FEF35D"/>
<path transform="translate(1474,437)" d="m0 0 7 6 87 87h-3l-78-78-8 4-14 9-9 6h-6l-7-5-3-2v-3l18-13z" fill="#FEAD4A"/>
<path transform="translate(1362,1542)" d="m0 0 3 1-5 4h-2v3l-20 12-22 13-26 14-32 15-29 11-30 10h-3l2-4 8-1 1-3 11-4 13-5 21-8 3-2 20-8 15-8 17-9 8-4 3-3 8-4 11-6 13-8 7-4z" fill="#FEEC5C"/>
<path transform="translate(1593,1480)" d="m0 0 4 4-1 5-106 106-2-2 8-11 8-9 53-53 7-8 14-15 7-7 5-8z" fill="#FEEA5B"/>
<path transform="translate(570,455)" d="m0 0 7 2 34 24 18 13 19 13 4 1-5 1-2-1 1 3-8 1-9-5-28-21-11-8v-2l-4-2-9-7-2-5h-2v-2l-4-1v-3z" fill="#FEEB5B"/>
<path transform="translate(1449,1577)" d="m0 0h8l15 10 11 8 2 5-10 10-4-2-19-13-14-10 3-1 2-4z" fill="#FEAD4A"/>
<path transform="translate(1104,1693)" d="m0 0 2 2v10l-1 7-2 5v27l-4 21h-12l-10-5 1-2 9-3 4-6 3-9 3-18 6-25z" fill="#FEF55E"/>
<path transform="translate(797,431)" d="m0 0 3 1-10 4-16 10-21 12-8 5-10 6-9 2-2-2-1-2-3-2 25-13 18-8z" fill="#FEAD4A"/>
<path transform="translate(1232,400)" d="m0 0 1 3 7 1 20 8 28 12 4 2-2 6-3 7h-2l-2 5-5 1-1-3 2-4v-8l-4-5-5-2-3-5-2-1v2l-5-1-4-3-6-2-11-3h-4l-6 4 1-7z" fill="#FEF25D"/>
<path transform="translate(725,1577)" d="m0 0 9 1 12 8 22 11v2l6 3v3l6 2 11 5-3 1-32-13-25-12-15-8 2-1 5 1z" fill="#FEAD4A"/>
<path transform="translate(1208,1432)" d="m0 0h2v2h-2l-1 5-6 2-4 4-7 3-19 7-5 2h-5l-5 3h-10l-1 3-2 1h-11l-2-3 27-8 29-11z" fill="#FEEB5B"/>
<path transform="translate(638,1541)" d="m0 0 2 2-2 4-16 11-18 13-17 12-7 5h-4l2-5 12-10 14-10 17-12 14-9z" fill="#FEED5D"/>
<path transform="translate(1569,542)" d="m0 0 5 1 4 2v2l6 1 9 9 3 1 1 5-11 15-12 17-3-1 4-10 6-10 4-5 1-8-3-5-6-4-8-8z" fill="#FEEE5C"/>
<path transform="translate(1441,1173)" d="m0 0 3 1 1 4-1 3h-2v3h-2l1 6-3 5-5 13-2 5h-2l-1 6-3 4v3l-8 2 3-9 9-19 10-26z" fill="#FEEA5C"/>
<path transform="translate(1314,472)" d="m0 0 6 2 22 13 25 16 3 3-4-1v2h-7l-6-4-10-7v-2l-6-2-6-4v-2l-5-1-5-4v-2h-2v-3l-5-3z" fill="#FEE359"/>
<path transform="translate(573,888)" d="m0 0 3 2v8l-7 27h-2v4l-4 1-1-1v-7l2-7 2-5 2-9 3-7z" fill="#FEE65B"/>
<path transform="translate(551,999)" d="m0 0h2l2 4v36l-3 3-2-3-1-13v-11z" fill="#FFF75E"/>
<path transform="translate(1613,848)" d="m0 0h2l3 6 8 31v5l-2-2h-4l-1-1v-12l-3-3-1-9v-2l-2-2-2-5 1-4z" fill="#FEE559"/>
<path transform="translate(1499,470)" d="m0 0 5 3 5 2 3 3 4 2 1 5 2 1 7 9 4 5v2h-2v-2h-3v-2l-4-2-8-7-7-8-3-3v-2h-2z" fill="#FFF65E"/>
<path transform="translate(669,1547)" d="m0 0 5 1 18 11 4 6-1 2-6-2-19-12-2-5z" fill="#FEE95B"/>
<path transform="translate(1115,382)" d="m0 0h1l3 17 2 3 48 11 3 2-9-1-41-9-4-2-3-15z" fill="#FEAD4A"/>
<path transform="translate(647,749)" d="m0 0 2 1-2 4-15 22-4 6h-1l1-7 7-9 2-1 1-5 1-2h2l2-4z" fill="#FED656"/>
<path transform="translate(1228,411)" d="m0 0 2 2 2-1v6l-1 2h-2l-2 10-3 3-1-3-4 1-3-3 6 1 3-9z" fill="#FEDD57"/>
<path transform="translate(1673,923)" d="m0 0 11 1 31 5v1l-20-1-4 1-12-3-1-2-5-1z" fill="#FECE53"/>
<path transform="translate(556,957)" d="m0 0 3 2v18l-5-2v-12z" fill="#FFF75E"/>
<path transform="translate(566,912)" d="m0 0 2 1-1 6h2v6h-2v4l-4 1-1-1v-7l2-7z" fill="#FEF35D"/>
<path transform="translate(1107,1708)" d="m0 0h1l-1 11-3 18h-1l-1-13v-8l3-5h2z" fill="#FED65B"/>
<path transform="translate(561,930)" d="m0 0 2 2v19h-4-1v-9l2-9z" fill="#FFF65E"/>
<path transform="translate(566,1121)" d="m0 0 3 1 2 9-1 4v-3l-2 4-5-6 1-7z" fill="#FEE75B"/>
<path transform="translate(926,571)" d="m0 0 2 4v2l-16 1-2-3 10-3h5z" fill="#FFF65E"/>
<path transform="translate(1144,1457)" d="m0 0 4 1-3 5-2 1h-11l-2-3z" fill="#FEE359"/>
<path transform="translate(1101,1745)" d="m0 0h1l-1 10-2 10h-4l1-11 3-7z" fill="#FED95D"/>
<path transform="translate(1108,340)" d="m0 0h1l3 18v6l-5-5-1-6z" fill="#FED059"/>
<path transform="translate(1052,1476)" d="m0 0h16l-3 3h-23l3-2z" fill="#FFF55E"/>
<path transform="translate(1613,848)" d="m0 0h2l3 6v7h-3l-2-2-2-5 1-4z" fill="#FEEC5C"/>
<path transform="translate(1084,1471)" d="m0 0h11l-2 4h-14l-2-3z" fill="#FEE55A"/>
<path transform="translate(1394,1549)" d="m0 0 4 1 6 5 3 4-4 1-10-7z" fill="#FEE35A"/>
<path transform="translate(1208,1432)" d="m0 0h2v2h-2l-1 5-9 3-1-5z" fill="#FEE059"/>
<path transform="translate(726,1340)" d="m0 0 5 1 3 2-1 4h-2v2l-3 1v-2h-2l1-4z" fill="#F7F66A"/>
<path transform="translate(647,749)" d="m0 0 2 1-2 4-7 10-3-1 2-5h2l2-4z" fill="#FEE059"/>
<path transform="translate(1126,1462)" d="m0 0h7l-2 4-5 2-6-1v-2z" fill="#FEE95C"/>
<path transform="translate(1625,891)" d="m0 0 1 4h2v9l-2 1-3-3v-7z" fill="#FEF05C"/>
<path transform="translate(910,576)" d="m0 0 6 1h12v1l-21 4 2-4z" fill="#FED35A"/>
<path transform="translate(893,583)" d="m0 0 4 2-25 7-2-1 9-4 12-3z" fill="#FED059"/>
<path transform="translate(1146,1636)" d="m0 0h8l-4 2-16 4h-3v-2z" fill="#FED656"/>
<path transform="translate(1104,316)" d="m0 0h1l2 12v6h-3l-1-2z" fill="#FECD58"/>
<path transform="translate(1596,790)" d="m0 0 2 3 2 5v3l-4-1v-2l-3-1v-4h2z" fill="#FEE359"/>
<path transform="translate(619,791)" d="m0 0 2 1-2 5-5 9-2-4 6-10z" fill="#FEDA57"/>
<path transform="translate(1114,1467)" d="m0 0 2 1-4 4-10-1 3-3z" fill="#FFF65E"/>
<path transform="translate(1441,1173)" d="m0 0 3 1 1 4-1 3h-2v3h-2v-10z" fill="#FFF65E"/>
<path transform="translate(1351,716)" d="m0 0 3 1 3 5 2 4h-6l-1-4-2-3z" fill="#FEF45D"/>
<path transform="translate(1103,1720)" d="m0 0h2v11l-1 6h-1l-1-13z" fill="#FEDA5C"/>
<path transform="translate(1445,1161)" d="m0 0 4 4-2 6-3-1v-8z" fill="#FFF65E"/>
<path transform="translate(582,873)" d="m0 0 1 3-4 12-2-2-1-6 2-2h2z" fill="#FED154"/>
<path transform="translate(1439,1174)" d="m0 0h1v10l-3 3h-2l3-10z" fill="#FED158"/>
<path transform="translate(1608,829)" d="m0 0 3 1 2 10h-3v-2h-2l1-3z" fill="#FEDF58"/>
<path transform="translate(562,1103)" d="m0 0 2 2-1 6-4-1 1-6z" fill="#FFF75E"/>
<path transform="translate(1586,772)" d="m0 0 4 1 2 7-3-1v-2l-4-1z" fill="#FEE65A"/>
<path transform="translate(1448,1149)" d="m0 0h3l2 4-4 4h-1z" fill="#FFF65E"/>
<path transform="translate(1132,584)" d="m0 0h2v2h7l3 1v2l2 1-9-2-5-2z" fill="#FED156"/>
<path transform="translate(944,569)" d="m0 0 5 2v2h-8l-2-2z" fill="#FFF55E"/>
</svg>
