<?xml version="1.0" encoding="UTF-8"?>
<svg version="1.1" viewBox="0 0 2048 2048" width="1280" height="1280" xmlns="http://www.w3.org/2000/svg">
<path transform="translate(215,96)" d="m0 0h1617l18 2 18 5 21 10 14 10 10 9 5 5 9 10 11 18 7 16 4 14 2 11 1 13v1612l-1 16-5 18-5 13-8 15-8 11-9 10-7 7-10 8-19 11-18 7-17 4-16 1h-1612l-16-1-19-5-16-7-11-6-16-12-14-14-12-17-8-16-6-18-3-16v-1628l3-18 5-16 6-14 9-14 8-10 9-10 15-12 15-9 14-6 18-5z" fill="#FDEA99"/>
<path transform="translate(96,414)" d="m0 0h1l1 570 2 60 3 26 6 41 3 22 9 42 7 25 10 34 14 41 6 16 5 12 11 26 11 24 12 25 24 44 17 28 12 19 18 27 9 13 10 14 8 10-3 2-7 1-9 3-8 5-5 5h-2l-4 12v13l4 10 8 9 7 4 5 1v2l72 1 5 4 7 8 10 11 8 7 13 13 8 7 9 9 11 9 13 12 22 18 16 13 17 13 15 11 17 12 16 11 20 13 19 12 22 13 25 14 39 20 33 16 30 13 24 10 29 11 28 10 43 14 35 10 42 11 20 4 41 7 3 2 54 4 19 2 38 2 2-16 4-16 6-11 10-13 68-68 8-7 2-2-1-5-11-22-8-19-9-24-5-14-1-1-112-1-17-2-13-5-12-7-10-10-9-16-3-13-1-9v-140l3-13 7-13 6-8 8-7 10-6 9-4 9-2 14-1 112-1 7-21 8-21 9-20 10-19-1-5-64-64-6-5-7-8-11-14-6-13-3-12v-18l4-15 6-12 9-10 7-8 16-16h2v-2h2v-2h2v-2l8-7 25-25 1-2h2v-2h2l2-4 17-17 8-7 11-7 12-5 12-2h13l14 3 16 8 13 11 74 74 1 2 7-1 21-11 19-8 22-8 15-5h2l1-125 3-13 6-12 11-13 13-9 13-5 18-2h127l18 2 13 5 11 7 10 10 8 14 4 15 1 10 1 113 2 3 29 10 30 13 17 8 3 2 5-1 5-6 72-72 12-9 12-6 12-3 21-1 2 1v-153h1v877l-1 16-5 18-5 13-8 15-8 11-9 10-7 7-10 8-19 11-18 7-17 4-16 1h-1612l-16-1-19-5-16-7-11-6-16-12-14-14-12-17-8-16-6-18-3-16z" fill="#FCCA05"/>
<path transform="translate(215,96)" d="m0 0h1617l18 2 18 5 21 10 14 10 10 9 5 5 9 10 11 18 7 16 4 14 2 11 1 13v159l-1 38h-1854l-1-2v-202l3-18 5-16 6-14 9-14 8-10 9-10 15-12 15-9 14-6 18-5z" fill="#016DF3"/>
<path transform="translate(96,414)" d="m0 0h1l1 570 2 60 3 26 6 41 3 22 9 42 7 25 10 34 14 41 6 16 5 12 11 26 11 24 12 25 24 44 17 28 12 19 18 27 9 13 10 14 8 10-3 2-7 1-9 3-8 5-5 5h-2l-4 12v13l4 10 8 9 7 4 5 1v2l72 1 5 4 7 8 10 11 8 7 13 13 8 7 9 9 11 9 13 12 22 18 16 13 17 13 15 11 17 12 16 11 20 13 19 12 22 13 25 14 39 20 33 16 30 13 24 10 29 11 28 10 43 14 35 10 42 11 20 4 41 7 3 2 54 4 19 2 38 2 1-12h1v15h9l2 2h-900l-16-1-19-5-16-7-11-6-16-12-14-14-12-17-8-16-6-18-3-16z" fill="#FDDC5A"/>
<path transform="translate(1577,1376)" d="m0 0h45l24 4 25 7 16 6 21 10 19 12 16 12 12 11 16 16 9 12 8 11 10 17 10 21 8 23 5 22 3 23v39l-4 24-7 25-6 16-9 19-11 18-9 12-10 13-19 19-11 9-14 10-15 9-16 8-21 9-24 7-20 4-12 1h-32l-18-2-25-6-27-9-21-10-18-11-16-12-20-18-7-8-9-11v-2h-2l-14-21-11-20-8-20-6-20-5-24-1-8v-45l4-24 5-20 9-24 8-16 8-14 12-17 11-13 20-20 17-13 15-10 11-6 16-8 22-8 24-6z" fill="#FEE998"/>
<path transform="translate(371,576)" d="m0 0h26l21 4 19 7 15 8 11 8 10 9 9 9 10 14 6 10 8 20 5 23 1 15v286l-1 11-6 12-8 7-11 5h-12l-10-4-9-8-6-12-1-6-1-161-127-1v160l-2 11-5 9-8 7-8 4-4 1h-10l-11-4-9-8-6-12-1-7v-296l3-22 5-16 5-12 8-14 10-13 7-8h2v-2l14-11 13-8 15-7 16-5z" fill="#FE5322"/>
<path transform="translate(601,576)" d="m0 0h145l16 3 16 6 12 7 10 8 10 10 7 10 8 16 4 13 2 10 1 12v62l-1 15-4 18-4 10-8 15-9 11-8 8-10 7-16 8-21 6-12 1h-99v160l-2 11-5 9-8 7-8 4-3 1h-12l-10-4-9-8-6-12-1-6v-391l3-10 7-9 11-7z" fill="#FD5321"/>
<path transform="translate(285,1344)" d="m0 0h649l8 3 6 4 8 9 4 11v11l-3 8-6 9-8 6-9 2-633 1-21-1-8-3-10-9-6-12-1-9 2-9 5-8 5-5 8-5z" fill="#4E9FFD"/>
<path transform="translate(285,1152)" d="m0 0h649l8 3 6 4 8 9 4 11v10l-3 9-6 9-8 6-9 2h-651l-8-2-7-4-5-5-6-10-2-10 2-11 5-8 7-7 8-4z" fill="#4E9FFD"/>
<path transform="translate(284,1536)" d="m0 0h554l8 3 6 4 8 9 4 11v10l-3 9-6 9-8 6-9 2h-557l-9-3-10-9-5-10-1-3v-13l5-12 8-7 7-4z" fill="#4E9FFD"/>
<path transform="translate(921,576)" d="m0 0h15l10 5 8 8 5 11 1 6v383l-1 11-6 12-8 7-11 5h-12l-10-4-9-8-6-12-1-6v-391l3-10 7-9 11-7z" fill="#FE5322"/>
<path transform="translate(640,640)" d="m0 0h101l10 3 9 7 6 10 2 7v72l-3 11-6 8-8 7-12 3h-99z" fill="#FEE997"/>
<path transform="translate(375,640)" d="m0 0h18l15 4 14 8 10 9 6 8 6 12 4 16v70l-2 1h-126v-74l3-12 8-15 11-12 14-9 10-4z" fill="#FEE997"/>
<path transform="translate(504,191)" d="m0 0h14l13 3 9 4 8 4 13 12 7 10 4 8 4 15v19l-5 16-7 12-8 9-11 8-12 6-12 3h-16l-14-3-11-5-12-9-5-6-3-3-6-10-5-13-1-5v-21l5-16 7-11 9-10 11-8 12-6z" fill="#FACA08"/>
<path transform="translate(727,192)" d="m0 0h15l14 3 14 6 13 11 9 12 4 8 4 16v16l-4 16-6 11-7 9h-2l-2 4-11 8-15 6-9 2h-17l-14-4-12-6-9-7v-2l-4-2-9-14-5-11-2-8v-19l4-16 8-13 9-10 9-7 13-6z" fill="#B82748"/>
<path transform="translate(278,192)" d="m0 0h19l15 4 13 7 10 9 7 9 6 12 3 10 1 7v12l-3 14-7 14-9 11-10 8-16 8-10 3h-14l-18-4-12-6-9-7-7-8-2-5h-2l-5-10-4-15v-20l5-16 7-11 10-11h2v-2l15-9 9-3z" fill="#92A250"/>
<path transform="translate(680,282)" d="m0 0 4 1v2l5 2 2 2 5 4 4 5 3 2v2l4 2 2 5 4 1 1 4-6-2-7-4-5-2-4-3v-2l-4-2-3-4-3-8z" fill="#F65126"/>
<path transform="translate(792,277)" d="m0 0h3l-2 6-5 8-2 5-3 4h-2l-2 4-5 1 2-4h2l2-4h2l-1-5 1-3h2v-2h2l1-4h3l1-5z" fill="#FD5222"/>
<path transform="translate(1105,1935)" d="m0 0h1v15h9l2 2h-34v-1l8-2v-2h13z" fill="#E2CE57"/>
<path transform="translate(1057,1948)" d="m0 0h34l-3 3h-30l-2-2z" fill="#FDCB05"/>
<path transform="translate(1319,1133)" d="m0 0 4 2 5 5 7 6 4 5v2l4 2-2 1-3-2v-2l-4-2v-2l-4-2v-2l-4-2v-2l-4-2-3-3z" fill="#FEFEFE"/>
<path transform="translate(796,248)" d="m0 0h2v16l-3 4v-19z" fill="#FE5322"/>
<path transform="translate(785,294)" d="m0 0 2 1-4 5h-2l-2 4-5 1 2-4h2l2-4z" fill="#D44837"/>
</svg>
