<?xml version="1.0" encoding="UTF-8"?>
<svg version="1.1" xmlns="http://www.w3.org/2000/svg" width="512" height="512">
<path d="M0 0 C0.75594955 0.41354736 1.51189911 0.82709473 2.29075623 1.25317383 C3.28205032 1.79482178 4.27334442 2.33646973 5.29467773 2.89453125 C6.76891457 3.70047729 6.76891457 3.70047729 8.27293396 4.52270508 C69.08183508 37.46385117 158.19227031 36.20133107 223.16015625 17.81396484 C235.98138775 14.00177874 248.18440835 9.48833746 259.609375 2.41796875 C262 1 262 1 265 0 C265.12714788 7.54376152 265.21449784 15.087245 265.2746582 22.63183594 C265.29974698 25.19639411 265.33382586 27.76088117 265.37719727 30.32519531 C265.438093 34.01905907 265.46626764 37.71197451 265.48828125 41.40625 C265.51408768 42.5461438 265.5398941 43.6860376 265.56648254 44.86047363 C265.56894689 51.9112658 264.61555682 56.55427212 260 62 C231.4297658 90.4063514 170.91479696 91.24824796 133.1875 91.1875 C132.48100311 91.18689575 131.77450623 91.1862915 131.04660034 91.18566895 C90.90517928 91.09366194 36.83335071 88.9000146 4.4375 61.6875 C-0.81736089 55.51875026 -0.39657458 49.29790866 -0.29296875 41.6015625 C-0.28872391 40.41146576 -0.28447906 39.22136902 -0.28010559 37.99520874 C-0.26335169 34.20490625 -0.22570416 30.41514102 -0.1875 26.625 C-0.17244897 24.05078894 -0.1587613 21.47656953 -0.14648438 18.90234375 C-0.11345883 12.60138008 -0.06329145 6.30072843 0 0 Z M115.66015625 55.33984375 C113.75085401 57.91119136 113.75085401 57.91119136 113.875 61.0625 C115.35476858 64.92634018 116.39151289 65.90760944 120 68 C124.00854907 68.57064304 127.958166 68.51225946 132 68.4375 C133.08023438 68.44458984 134.16046875 68.45167969 135.2734375 68.45898438 C140.81480987 68.41451657 144.39306379 68.35889507 149 65 C151.30260759 62.18401813 151.30260759 62.18401813 150.875 59 C149.83964562 55.45021357 149.14786779 54.81443958 146 53 C141.54532987 52.34439697 137.06028301 52.49058549 132.5625 52.5 C131.33466797 52.47164063 130.10683594 52.44328125 128.84179688 52.4140625 C121.69560395 52.12803573 121.69560395 52.12803573 115.66015625 55.33984375 Z " fill="#A9D670" transform="translate(33,260)"/>
<path d="M0 0 C3.66025996 1.4109535 6.99837174 3.08437284 10.41308594 5.02026367 C36.31315058 19.50648373 66.79854728 24.1926633 96 27 C96.91990723 27.0942627 97.83981445 27.18852539 98.78759766 27.28564453 C150.35253303 31.97489114 216.25366064 30.23025081 261.1796875 1.06640625 C263 0 263 0 265 0 C265.07615491 7.43808422 265.12864414 14.87606763 265.16479492 22.31445312 C265.17986786 24.84411374 265.20032961 27.37374829 265.22631836 29.90332031 C265.26276616 33.54238323 265.2797417 37.18110016 265.29296875 40.8203125 C265.30845261 41.94865509 265.32393646 43.07699768 265.33988953 44.23953247 C265.3413465 51.0593962 264.74914298 55.60551829 260.3359375 61.0546875 C238.18563191 81.61652496 200.61224322 85.91308471 172 89 C171.1813446 89.08846191 170.36268921 89.17692383 169.51922607 89.26806641 C162.47165969 89.97022185 155.48600732 90.1759041 148.40625 90.203125 C147.22067505 90.20882507 146.0351001 90.21452515 144.81359863 90.22039795 C142.30917232 90.22979827 139.80473392 90.23636203 137.30029297 90.24023438 C133.56584446 90.2498308 129.83197349 90.28085743 126.09765625 90.3125 C105.00759273 90.40579032 84.06741648 88.86625903 63.375 84.625 C62.30781738 84.41149902 61.24063477 84.19799805 60.14111328 83.97802734 C39.69534581 79.77160001 13.99640024 73.64648839 1 56 C-0.27469407 53.45061185 -0.12016184 51.66959002 -0.11352539 48.81591797 C-0.11344986 47.73494843 -0.11337433 46.65397888 -0.11329651 45.54025269 C-0.10813522 44.36939117 -0.10297394 43.19852966 -0.09765625 41.9921875 C-0.0962413 40.79643097 -0.09482635 39.60067444 -0.09336853 38.36868286 C-0.08775663 34.53743013 -0.07520208 30.70623516 -0.0625 26.875 C-0.05748653 24.28255293 -0.05292336 21.69010494 -0.04882812 19.09765625 C-0.03778333 12.73175102 -0.02103359 6.36587963 0 0 Z M115 56 C113.67091833 58.89072953 113.67091833 58.89072953 114 62 C115.643318 64.63317543 116.33262543 65.58145986 119 67 C123.53024257 67.70650577 127.98791599 67.60565968 132.5625 67.5 C133.79419922 67.50257813 135.02589844 67.50515625 136.29492188 67.5078125 C143.82330883 67.72628127 143.82330883 67.72628127 150 64 C151.17110449 61.1403994 151.17110449 61.1403994 151 58 C149.22960551 55.25283613 147.93708156 53.46854078 145 52 C140.90195531 51.70304024 136.7950376 51.72193995 132.6875 51.6875 C130.97530273 51.64399414 130.97530273 51.64399414 129.22851562 51.59960938 C121.19100787 51.35185812 121.19100787 51.35185812 115 56 Z " fill="#DCE369" transform="translate(33,413)"/>
<path d="M0 0 C3.55449966 1.38641811 6.92564409 2.95431144 10.31225586 4.71533203 C73.58011997 37.44195331 164.16068316 35.22782187 231 15 C241.54664796 11.50578499 251.49055546 7.20995914 260.8828125 1.25 C263 0 263 0 265 0 C265.10163607 7.41972114 265.17156495 14.83926192 265.21972656 22.25952148 C265.23980963 24.78237619 265.26708157 27.30518453 265.30175781 29.82788086 C265.35041913 33.45958923 265.37300265 37.09068071 265.390625 40.72265625 C265.41127014 41.84583755 265.43191528 42.96901886 265.45318604 44.12623596 C265.45535487 51.73969144 264.49731631 56.3124531 259.1328125 61.96875 C234.16970896 81.00675893 199.39229045 86.19590345 169 89 C167.99791504 89.0942627 166.99583008 89.18852539 165.96337891 89.28564453 C154.986975 90.19694852 144.00830239 90.24339063 133 90.25 C131.47832214 90.25101212 131.47832214 90.25101212 129.92590332 90.25204468 C92.31291496 90.21248397 33.90624861 89.35301897 5 61 C1.21012991 56.73639615 -0.12668234 54.47340824 -0.11352539 48.81591797 C-0.11344986 47.73494843 -0.11337433 46.65397888 -0.11329651 45.54025269 C-0.10813522 44.36939117 -0.10297394 43.19852966 -0.09765625 41.9921875 C-0.0962413 40.79643097 -0.09482635 39.60067444 -0.09336853 38.36868286 C-0.08775663 34.53743013 -0.07520208 30.70623516 -0.0625 26.875 C-0.05748653 24.28255293 -0.05292336 21.69010494 -0.04882812 19.09765625 C-0.03778333 12.73175102 -0.02103359 6.36587963 0 0 Z M115.65234375 54.30078125 C113.6936113 56.98797131 113.6936113 56.98797131 113.9375 60.625 C115.12492015 64.39680517 115.65439394 65.10065688 119 67 C123.47666697 67.630436 127.98375358 67.46340131 132.5 67.4375 C133.73621094 67.45748047 134.97242188 67.47746094 136.24609375 67.49804688 C137.43332031 67.49740234 138.62054688 67.49675781 139.84375 67.49609375 C140.92849609 67.49794678 142.01324219 67.4997998 143.13085938 67.50170898 C146.6616884 66.88429462 147.81315841 65.78310761 150 63 C151.00104646 60.13986727 151.23518193 58.68594728 150.25 55.8125 C148.96416127 53.70886156 148.96416127 53.70886156 146 52 C141.5574373 51.5031709 137.09231908 51.58339702 132.625 51.5625 C131.39265625 51.52962891 130.1603125 51.49675781 128.890625 51.46289062 C121.72986637 51.1381491 121.72986637 51.1381491 115.65234375 54.30078125 Z " fill="#C3DC6D" transform="translate(33,337)"/>
<path d="M0 0 C2.77126844 1.26855797 4.82770834 2.57523438 6.9881773 4.71973515 C7.55286809 5.27551024 8.11755887 5.83128534 8.6993615 6.40390211 C9.30957974 7.01448908 9.91979799 7.62507605 10.54850769 8.25416565 C11.2045882 8.90289278 11.86066871 9.55161992 12.53663045 10.22000545 C14.73780533 12.39912148 16.93175327 14.58536954 19.12573242 16.77172852 C20.7006636 18.3341295 22.27597504 19.89614726 23.85163879 21.45780945 C29.02681579 26.59092037 34.19132697 31.73469767 39.35546875 36.87890625 C41.13347397 38.64881649 42.91154846 40.41865714 44.68969154 42.18842888 C52.08405317 49.54905892 59.4761827 56.91191666 66.86094189 64.28218174 C68.7760095 66.19342973 70.69108763 68.10466717 72.60620117 70.01586914 C73.08217522 70.49087571 73.55814927 70.96588227 74.04854677 71.45528298 C81.76145448 79.15158584 89.49124728 86.83069332 97.22825452 94.50276113 C105.1749228 102.3832725 113.106128 110.27913464 121.02332002 118.18927139 C125.46757703 122.62882308 129.91822458 127.06149331 134.38518333 131.47821236 C138.58635385 135.63289035 142.76815217 139.80612515 146.93583488 143.99438667 C148.46840928 145.52795362 150.00784732 147.05469662 151.55456161 148.57400131 C153.66619513 150.65029093 155.75165212 152.74981556 157.83244324 154.85694885 C158.44935364 155.45192077 159.06626405 156.04689268 159.70186871 156.65989405 C163.49420139 160.56910048 164.73969813 163.55286007 165.12968522 168.99398178 C164.90386526 172.48704718 163.28383164 174.54173455 161 177 C160.32855957 177.72896484 159.65711914 178.45792969 158.96533203 179.20898438 C156.53898157 181.76666707 154.06006619 184.26190147 151.5625 186.75 C150.71623047 187.61238281 149.86996094 188.47476563 148.99804688 189.36328125 C148.17498047 190.18699219 147.35191406 191.01070312 146.50390625 191.859375 C145.75955322 192.60670898 145.0152002 193.35404297 144.24829102 194.12402344 C140.82667676 196.97902223 138.12865403 197.97870464 133.6875 198.0625 C130.05504319 197.0158599 128.89633736 196.29365816 126.19743347 193.85398006 C125.49665869 193.2208785 124.7958839 192.58777694 124.07387352 191.93549049 C121.04101484 189.10500489 118.07949087 186.21444502 115.15356445 183.27381897 C114.51377844 182.63488738 113.87399242 181.99595579 113.21481895 181.33766264 C111.09526298 179.21973928 108.97927485 177.09828866 106.86328125 174.97680664 C105.335242 173.44848502 103.80698192 171.92038416 102.27851868 170.39248657 C98.14671718 166.26097108 94.01799841 162.12638747 89.88983917 157.99123311 C85.5688177 153.66394524 81.24494961 149.33950362 76.92138672 145.01475525 C68.74209825 136.83236315 60.56536149 128.64742605 52.38954544 120.46156448 C43.07833706 111.1391649 33.76427689 101.81961677 24.44997978 92.50030339 C5.29681864 73.33669976 -13.85277044 54.16953001 -33 35 C-31.56063914 32.00648946 -30.09524303 29.80810816 -27.8046875 27.390625 C-27.17506104 26.72216553 -26.54543457 26.05370605 -25.89672852 25.36499023 C-25.22955811 24.66704346 -24.5623877 23.96909668 -23.875 23.25 C-23.19429443 22.53207275 -22.51358887 21.81414551 -21.81225586 21.07446289 C-14.80782006 13.7067039 -7.74677845 6.59300293 0 0 Z " fill="#61C47A" transform="translate(314,121)"/>
<path d="M0 0 C-0.11593506 0.70495605 -0.23187012 1.40991211 -0.35131836 2.13623047 C-0.88323735 5.38197302 -1.41039522 8.6284723 -1.9375 11.875 C-2.11990234 12.98359375 -2.30230469 14.0921875 -2.49023438 15.234375 C-2.66748047 16.33007812 -2.84472656 17.42578125 -3.02734375 18.5546875 C-3.27085571 20.04718018 -3.27085571 20.04718018 -3.51928711 21.56982422 C-4.64188832 29.58025945 -5.16807445 37.51745691 -5.31640625 45.6015625 C-5.3475779 47.04527725 -5.3475779 47.04527725 -5.37937927 48.51815796 C-5.44408793 51.55370851 -5.50338875 54.58933583 -5.5625 57.625 C-5.6057603 59.69922628 -5.64937681 61.77344516 -5.69335938 63.84765625 C-5.79968703 68.89836142 -5.90116921 73.9491428 -6 79 C-16.15428919 79.12346104 -26.14189654 78.99971402 -36.25 77.875 C-37.42892822 77.74448242 -38.60785645 77.61396484 -39.82250977 77.47949219 C-67.54188139 74.17725707 -105.21105254 69.119464 -125 47 C-127.26799996 43.24139629 -127.45452056 40.39369879 -127 36 C-120.08226239 22.44123428 -102.81273961 16.52220534 -89.13110352 12.0847168 C-60.50168869 3.26189172 -29.92028038 -0.7229061 0 0 Z " fill="#9BD272" transform="translate(160,195)"/>
<path d="M0 0 C12.27673626 2.25157356 24.24304693 4.76222831 36 9 C36.71317383 9.25652344 37.42634766 9.51304687 38.16113281 9.77734375 C49.54582491 13.96090533 60.77332925 18.75155763 68 29 C69.35026298 32.82943436 69.25457915 36.12715721 68.125 40 C53.69107086 60.37731172 22.2417062 65.80727406 -0.6875 69.8125 C-18.49566302 72.75695439 -35.95332814 74.39663015 -54 74 C-52.74446319 70.60323188 -51.31908904 67.76205649 -49.234375 64.8046875 C-48.68112549 64.01594238 -48.12787598 63.22719727 -47.55786133 62.41455078 C-46.66296997 61.15747314 -46.66296997 61.15747314 -45.75 59.875 C-44.81933716 58.55798096 -44.81933716 58.55798096 -43.86987305 57.21435547 C-31.78310197 40.17309028 -19.26197414 23.52340415 -5.97265625 7.40234375 C-3.96028639 4.95163591 -1.97606851 2.48003229 0 0 Z " fill="#83CC75" transform="translate(229,200)"/>
<path d="M0 0 C3.65881177 1.53956134 5.9829179 3.74089057 8.76855469 6.54150391 C9.45705757 7.22956871 9.45705757 7.22956871 10.1594696 7.93153381 C11.66839675 9.4418491 13.17012454 10.95911388 14.671875 12.4765625 C15.71947224 13.5278917 16.76751328 14.57877885 17.815979 15.62924194 C20.5691252 18.39001016 23.31621127 21.15673249 26.06207275 23.92474365 C28.86716916 26.75032928 31.67796321 29.57023445 34.48828125 32.390625 C39.99777532 37.92154374 45.50087877 43.45876589 51 49 C50.06286242 50.1089686 49.12344827 51.21601358 48.18310547 52.32226562 C47.66021942 52.93896118 47.13733337 53.55565674 46.59860229 54.19104004 C44.26429013 56.83252082 41.74439344 59.13768231 39.125 61.5 C37.67480469 62.81484375 37.67480469 62.81484375 36.1953125 64.15625 C34.51200701 65.66646289 32.81665371 67.15695554 31.09863281 68.62768555 C26.26895997 72.77368199 21.82705164 77.14659309 17.5 81.8125 C16.85216553 82.50666016 16.20433105 83.20082031 15.53686523 83.91601562 C10.75584729 89.08131351 6.23397778 94.37273241 2 100 C-1.65881177 98.46043866 -3.9829179 96.25910943 -6.76855469 93.45849609 C-7.22755661 92.99978622 -7.68655853 92.54107635 -8.1594696 92.06846619 C-9.66839675 90.5581509 -11.17012454 89.04088612 -12.671875 87.5234375 C-13.71947224 86.4721083 -14.76751328 85.42122115 -15.815979 84.37075806 C-18.5691252 81.60998984 -21.31621127 78.84326751 -24.06207275 76.07525635 C-26.86716916 73.24967072 -29.67796321 70.42976555 -32.48828125 67.609375 C-37.99777532 62.07845626 -43.50087877 56.54123411 -49 51 C-38.74201001 29.79265959 -18.63713114 13.51704017 0 0 Z " fill="#4FC07B" transform="translate(262,53)"/>
<path d="M0 0 C3.10851082 1.3857472 5.26055073 2.99599983 7.68286133 5.37646484 C8.38651321 6.06412933 9.0901651 6.75179382 9.81513977 7.46029663 C10.56321396 8.20300812 11.31128815 8.9457196 12.08203125 9.7109375 C12.85560471 10.47548248 13.62917816 11.24002747 14.42619324 12.02774048 C16.05695261 13.64400619 17.68492641 15.26308662 19.31030273 16.88476562 C21.8084235 19.37094299 24.32458327 21.83786241 26.84179688 24.3046875 C28.42302053 25.87645258 30.00313757 27.44933189 31.58203125 29.0234375 C32.71932426 30.13143204 32.71932426 30.13143204 33.8795929 31.2618103 C34.91142952 32.30276352 34.91142952 32.30276352 35.96411133 33.36474609 C36.57603836 33.97160248 37.18796539 34.57845886 37.81843567 35.20370483 C39 37 39 37 38.81278992 39.0765686 C37.59638299 41.9551418 35.6504703 43.80915226 33.5 46.0625 C30.09203123 49.69490933 26.81492573 53.36827865 23.6875 57.25 C20.67055777 60.99334132 17.57725172 64.64392842 14.39990234 68.25024414 C7.43906911 76.15972008 1.01356084 84.38210869 -5.32324219 92.79541016 C-7.61095598 95.80328079 -9.9490726 98.77026598 -12.28564453 101.74023438 C-18.10639185 109.14293253 -23.70324844 116.64730407 -29.00610352 124.43164062 C-31.71744308 128.37014703 -34.50435039 131.73191529 -38 135 C-39.22511703 90.46856661 -28.86443668 35.75465705 0 0 Z " fill="#75C977" transform="translate(207,119)"/>
<path d="M0 0 C-3.9745365 3.2189212 -8.03101522 6.31113104 -12.125 9.375 C-12.81658203 9.89392822 -13.50816406 10.41285645 -14.22070312 10.94750977 C-18.03372285 13.8026059 -21.86145367 16.63564845 -25.7109375 19.44140625 C-35.4639145 26.55523685 -44.97403554 33.87226898 -54.27197266 41.57177734 C-56.73154178 43.60462269 -59.21088815 45.61297623 -61.6875 47.625 C-70.57416841 54.9104669 -79.32645962 62.32222758 -87.83203125 70.05078125 C-90.49540304 72.44541643 -93.22506992 74.73624125 -96 77 C-99.18259851 75.59490901 -101.31348466 73.93078658 -103.75878906 71.46826172 C-104.47923401 70.74766571 -105.19967896 70.0270697 -105.94195557 69.28463745 C-106.70876648 68.50750397 -107.47557739 67.73037048 -108.265625 66.9296875 C-109.05902283 66.13345978 -109.85242065 65.33723206 -110.66986084 64.51687622 C-113.20130703 61.97424052 -115.72570803 59.42473652 -118.25 56.875 C-119.96568617 55.14928247 -121.68182662 53.42401645 -123.3984375 51.69921875 C-127.60424248 47.47136968 -131.80428507 43.23786131 -136 39 C-133.57806454 36.45524427 -131.34134403 34.40911565 -128.26953125 32.703125 C-127.55893555 32.30609375 -126.84833984 31.9090625 -126.11621094 31.5 C-125.35598633 31.0875 -124.59576172 30.675 -123.8125 30.25 C-122.6044873 29.59257813 -122.6044873 29.59257813 -121.37207031 28.921875 C-118.92160797 27.60114011 -116.46263102 26.29787994 -114 25 C-113.33339355 24.64357422 -112.66678711 24.28714844 -111.97998047 23.91992188 C-90.71524686 12.69152728 -66.59910479 5.98748242 -43 2 C-42.29375488 1.87157715 -41.58750977 1.7431543 -40.85986328 1.61083984 C-27.38206227 -0.8025405 -13.63500851 -0.19452931 0 0 Z " fill="#2DB781" transform="translate(415,9)"/>
<path d="M0 0 C-3.48540829 3.53629016 -7.06657862 6.91738065 -10.75 10.25 C-18.51062285 17.33417238 -25.97644429 24.33080414 -32 33 C-32.99 32.67 -33.98 32.34 -35 32 C-37.56123951 25.08465333 -37.92769656 17.64726847 -35.05859375 10.73046875 C-31.7307754 4.98641265 -27.18564603 0.59282301 -21.25 -2.375 C-13.55594624 -3.85462572 -6.95836856 -3.7111299 0 0 Z " fill="#4ABE7D" transform="translate(243,49)"/>
</svg>
