<?xml version="1.0" encoding="UTF-8"?>
<svg version="1.1" viewBox="0 0 2048 2048" width="1280" height="1280" xmlns="http://www.w3.org/2000/svg">
<path transform="translate(80,193)" d="m0 0h191l17 1 10 5 8 9 4 11v4l79-1 4-13 6-8 10-6 2-1 28-1h1379l21 1 12 3 14 7 10 8 7 7 7 11 6 14 2 13 1 1301 123 123 10 13 9 17 5 14 3 12v29l-5 18-8 18-8 12-9 10-8 8-14 9-15 7-14 4-10 2h-25l-19-4-18-8-11-7-15-13-51-51-51-1h-1195l-11-2-9-6-7-8-3-8v-6h-80l-1 8-5 10-9 8-9 3-11 1h-350l-18-1-13-3-14-7-11-9-8-9-8-14-5-14v-1463l6-16 8-14 13-13 16-9 14-4z" fill="#FDFBF8"/>
<path transform="translate(80,193)" d="m0 0h191l17 1 10 5 8 9 4 11v4l79-1 4-13 6-8 10-6 2-1 28-1h1379l21 1 12 3 14 7 10 8 7 7 7 11 6 14 2 13 1 1301 123 123 10 13 9 17 5 14 3 12v29l-5 18-8 18-8 12-9 10-8 8-14 9-15 7-14 4-10 2h-25l-19-4-18-8-11-7-15-13-51-51-51-1h-1195l-11-2-9-6-7-8-3-8-1-10 4-11 9-10 9-5 8-1h1184l-7-8-157-157v-2h-2l-5-10-1-4v-11l3-8 4-6 8-7 11-3h8l7 2 8 4 282 282 10 7v2l9 2 1 1h18l16-6 5-5h2l2-4 3-4h2l1-5 3-8v-19l-4-10-3-5v-3l-4-2-9-10-581-581-3-2-59 59-1 3 4 2 211 211 2 3v3h2l3 10v10l-4 9-7 8-7 5-7 2h-10l-11-4-13-12-206-206-5 1-8 4-12 3h-18l-15-4-6-2-55 55-7 8-13 14-11 14-8 10-13 18-15 23-4 7h64l11 4 11 7 8 8 6 11 3 9 1 7v127l-2 11-4 10-7 10-10 9-10 5-7 2-8 1h-129l-9-2-7-3h-5l-10 4-6 1-16-1-12-5-11-8-8-10-5-14-6-28-4-28-2-22v-71l4-36 6-31 8-32 12-36 10-24 7-15 7-14 11-20 6-9 6-11 8-11 7-10 10-13 5-7h2l2-4 12-14 16-17 18-18 1-5-5-12-1-5v-23l5-15 1-2h2v-5l-10-11-7-10-7-14-5-16-2-11v-24l4-20 7-16 7-12 9-11 7-7 13-10 17-9 17-5 12-2h20l16 3 12 4 16 8 11 8 9 8v2l14-7 10-3h19l12 3 11 4 4-5 8-7 20-20 8-7 13-11 14-11 13-10 15-10 3-1 1-2h-70l-13-3-8-4-9-7-7-8-6-12-2-8v-96l4-13 6-9 10-10 12-7 16-3h82l14 2 14 7 9 8 6 8 5 12 1 4v99l-2 7 18-8 27-10 33-10h2v-90l2-14 7-14 9-10 13-8 9-3 8-1h126l14 3 12 6 10 9 6 9 4 8 2 8 1 93 14 4 12 6 10 9 8 14 2 8v17l-4 13-6 9-9 9-12 6-16 4-33 7-25 7-33 11-24 10-26 12-28 15-11 7-8 5-12 8-10 7-11 8-14 11-13 11-12 11-8 7-54 54 1 6 3 7 2 11v12l-3 14-4 10-2 4 115 115 3 1 8-7 11-6 9-2 34-1h60l43 1 13 4 10 6v2l4 2 3 3v2h2l8 15 2 9v132l-3 14-5 10-7 8 2 4 98 98 2 1v-1013h-1777l1 67v1146l1 8 4 4 367 1 10 2 8 5 8 9 3 8v6l2 1h-2l-1 8-5 10-9 8-9 3-11 1h-350l-18-1-13-3-14-7-11-9-8-9-8-14-5-14v-1463l6-16 8-14 13-13 16-9 14-4z" fill="#020101"/>
<path transform="translate(311,223)" d="m0 0h78l4 13 6 9 10 6 8 2 1414 1 5 4 1 8v155l-1 1h-1776v-163l6-5 212-1 11-1 8-4 5-4 5-8z" fill="#20A6FD"/>
<path transform="translate(1791,491)" d="m0 0h28l6 2 2 6-1 15v46l1 53v132l-1 33v93l1 99v289l1 101v31l-1 65-1 8-2 2-5-1-4-5-11-9-7-6v-2h-2v-2l-4-2-5-5-5-4-2-5h-2v-2h-2v-2h-2l-6-7-6-5-4-4v-2h-2v-2h-2l-4-6 2-12 2-6v-2h2v-38l1-6-2-2-2 31-2 8h-1l1-139h1l1 8 1 30 1 8 3-1v-12l1-7-1-9v-15l-1-7-4-6-1-5-4-2-1-4-4-4v-2h-2l-4-8-2-1v-2l-4-1v-2l-5-1-10-4-7-3-5-2-3-4-1-3v-49l2-5 5-4 9-6 7-6 1-2h2v-2h2l1-5 2-2 4-13 1-13v-14l-1-6v-12l-1-5 2-31v-19l-4-12-6-8-3-1-1-4-1-8-8-8-8-5v-2h-2l-3-8v-18l1-49 3-1v-2l23-7 23-5 12-2 13-5 10-6 5-5h2v-2l5-5 6-9 3-10v-16l-3-12-8-16-5-6v-2h-2l-5-6-7-4-10-4-6-4-2-5v-80l-2-7-4-9-9-14-6-6v-2l-4-2-13-6-8-3-9-3-3-4-1-6 1-81 3-3 20-1h33z" fill="#F4ECE6"/>
<path transform="translate(1382,1128)" d="m0 0 6 5v2l4 2 587 587 7 14 1 4v19l-5 13h-2l-2 4-10 10-16 6h-18l-10-4v-2l-5-2-13-12-274-274-9-5-6-1h-8l-11 3-7 5-55-55-1-3 6-8 2-6v-10l-2-10h-2l-4-7-211-211-2-1 1-4z" fill="#FED060"/>
<path transform="translate(184,1076)" d="m0 0h749l12 2 9 6 7 8 3 8v13l-4 10-4 5-10 7-8 2h-756l-9-3-9-7-6-9-1-3v-17l5-10 9-8 7-3z" fill="#030202"/>
<path transform="translate(1019,595)" d="m0 0h126l14 3 12 6 10 9 7 11 4 11 1 8v125l-3 16-5 10-11 12-11 7-9 3-7 1h-131l-12-3-10-5-11-9-7-11-4-11-1-6v-131l2-10 4-10 7-9 10-9 10-5 7-2z" fill="#020202"/>
<path transform="translate(460,1382)" d="m0 0h131l14 4 10 6 9 8 8 13 3 9v140l-4 13-7 11-7 7-11 7-10 3-8 1h-129l-12-3-10-5-10-8-7-10-5-12-1-6v-134l3-12 4-8h2l1-4 10-10 10-6 9-3z" fill="#020101"/>
<path transform="translate(462,595)" d="m0 0h126l16 4 10 5 10 9 8 13 3 9v140l-4 13-7 11-7 7-14 8-12 3h-133l-11-3-10-5-10-8-7-10-5-12-1-6v-134l3-12 6-10 9-10 11-7 10-4z" fill="#020101"/>
<path transform="translate(184,1225)" d="m0 0h624l10 2 7 4 8 8 4 9v15l-3 7-6 8-5 4-10 4h-632l-10-4-8-7-4-6-2-6v-15l6-12 8-7 8-3z" fill="#030202"/>
<path transform="translate(1674,254)" d="m0 0h157l5 4 1 8v155l-1 1h-171v-1l22-1 4-1v-2l7-2 1-4 1-42-114-1-10-3-8-6-4-5-4-10v-12l4-10 8-9 10-5 11-1h99l-1-2h3v-2l4-4 1-11v-32h-14l-11-1z" fill="#0996FC"/>
<path transform="translate(1253,934)" d="m0 0h4l116 116-1 4-126 126-3-1-4-5-8-7-104-104 2-4 120-120z" fill="#41474A"/>
<path transform="translate(204,1403)" d="m0 0h84l12 2 10 4 9 7 7 7 7 12 3 13v89l-4 16-7 11-4 5-8 6-12 6-11 2h-89l-12-3-12-6-12-12-6-12-3-14v-83l2-14 4-9 6-9 7-7 11-7 9-3z" fill="#020202"/>
<path transform="translate(206,616)" d="m0 0h80l14 2 9 4 9 6 8 8 6 10 3 8 1 8v88l-4 16-6 10-6 7-14 9-9 3-8 1h-88l-12-3-12-6-11-11-6-10-3-10-1-8v-83l3-16 4-8 7-9 8-7 8-5 10-3z" fill="#030202"/>
<path transform="translate(1319,1403)" d="m0 0h84l14 3 12 6 10 9 7 11 4 12 1 15v42l-1 40-4 13-6 9-7 8h-2v2l-16 8-10 2h-90l-12-3-11-6-10-9-7-11-4-13v-96l4-13 7-10 9-9 16-8z" fill="#020101"/>
<path transform="translate(1598,931)" d="m0 0h83l15 3 11 6 10 9 4 5 6 12 2 9v92l-3 12-6 11-8 9-11 7-10 4-6 1h-92l-12-3-12-7-11-11-7-14-1-5v-100l4-11 3-6h2l2-5 11-10 13-6z" fill="#020101"/>
<path transform="translate(762,1403)" d="m0 0h84l14 3 12 6 8 7 7 10 5 12 1 5v93l-3 12-6 11-8 9-11 7-10 4-7 1h-90l-12-3-10-5-12-11-6-10-3-8-1-4v-98l3-10 6-10 8-9 11-7 11-4z" fill="#020101"/>
<path transform="translate(762,616)" d="m0 0h81l14 2 12 5 11 9 7 10 5 12 1 5v93l-3 12-4 8-8 10-9 7-8 4-7 2-8 1h-87l-10-2-9-4-9-6-8-8-8-16-1-5v-98l4-12 7-11 10-9 14-7z" fill="#020101"/>
<path transform="translate(498,927)" d="m0 0h437l12 3 6 4 7 8 4 9v13l-4 10-5 6-7 5-12 3h-439l-9-3-6-4-8-9-3-7v-15l5-10 9-8 8-4z" fill="#030202"/>
<path transform="translate(1377,1135)" d="m0 0 4 1 8 4 11 10v2h2v2h2l1 4h3l1 4 3 1 1 2 3 2 1 2 3 2-1 2 5 1-1 3 4 1v3l4 1v3l4 1v3h2v2h2l7 8 95 95 3 1-1 2 5 1-1 3 5 1-1 3 5 1-1 3 5 1-1 3 5 1-1 3 5 1-1 3 5 1-1 3 5 1-1 3 5 1-1 3 5 1-1 3 5 1 1 1 3 4h2v2l2 2h2v2l2 2h2v2l2 2h2v2l2 2h2v2l2 2h2v2l2 2h2v2l2 2h2v2l2 2h2v2l2 2h2v3l2 1-1 2 5 1-1 3 5 1-1 3 5 1-1 3 5 1 1 4 192 192 6 5 6 7 12 12 5 4 16 16 2 1 1 3 3 1 1 3 3 1 1 3 3 1 1 3 3 1 1 3 3 1 1 3 3 1 1 3 3 1 1 3 3 1 1 3 3 1-1 2 5 1 1 3 3 2 1 2 5 2 4 4v2l7 1 30 30 7 14 1 4v19l-5 13h-2l-2 4-10 10-16 6h-18l-10-4v-2l-2-1h2l1-6h3v-4h2v-9l2-5 1-15-2-14-4-12-3-6-9-14-3-3v-2h-2l-7-8-232-232-5-4-6-7-7-6-5-6-7-6-5-6-7-6-5-6-4-3v-2l-3-1-5-6-4-3v-2h-2l-6-7-6-5-6-7-6-5-6-7-6-5-6-7-6-5-7-8-11-11-6-5-7-8-95-95-6-5-6-7-6-5-6-7-7-6-5-6-21-21-4-6-3-8v-3z" fill="#FEC64F"/>
<path transform="translate(1643,780)" d="m0 0 41 1v2l-41 14-30 12-28 13-30 16-20 12-15 10-17 12-17 13-11 9-17 14-7 7-8 7-36 36-6 5-5 5-9 10-5-2-53-53 6-7 18-18 8-7 13-12 14-11 13-10 15-10 18-11 18-10 27-13 23-9 24-8 27-7 26-5 33-4z" fill="#88857F"/>
<path transform="translate(1115,1136)" d="m0 0 4 2 53 53-2 4-8 7-15 16-37 37-7 8-10 11-20 25-13 18-18 27-14 24-18 35-12 27-10 27-10 32h-2l-2-18v-47l3-28 4-24 8-34 12-36 11-26 12-24 10-17 10-16 12-17 14-18 9-10 7-8 15-16z" fill="#88857F"/>
<path transform="translate(1215,973)" d="m0 0 2 2v3l4 2 30 30 6 5v2h2v2h2v2h2l7 8 6 7 4 7v12l-7 14-12 14-11 11-5 6-7 6-5 5-4 5-8 7-11 11h-2l-1 4-6-1-74-74 2-4z" fill="#595857"/>
<path transform="translate(1593,307)" d="m0 0h145l14 1 9 4 6 5 5 8 2 6v14l-4 9-7 8-8 5-4 1h-165l-10-3-8-6-4-5-4-10v-12l4-10 8-9 10-5z" fill="#020101"/>
<path transform="translate(1032,656)" d="m0 0h99l1 1v99h-100z" fill="#00DC98"/>
<path transform="translate(475,656)" d="m0 0h100v99l-1 1h-99z" fill="#00DC98"/>
<path transform="translate(475,1443)" d="m0 0h100v99l-63 1h-37z" fill="#00DC98"/>
<path transform="translate(1643,780)" d="m0 0 41 1v2l-41 14-30 12-28 13-30 16-20 12-15 10-17 12-17 13-11 9-17 14-7 7-8 7-36 36-6 5-5 5-9 10-5-2-21-21h3 3l1-3 8-7 26-26h2l2-4h2v-2l8-7 11-11 8-7 3-1v-2l10-8 14-12 12-9 14-10 18-12 18-11 32-18 20-9 10-5 9-4 3-2-16 2h-9v-1l29-4 10-1z" fill="#595857"/>
<path transform="translate(1057,1443)" d="m0 0h74l1 1v98l-1 1h-99v-27l8-28 12-33z" fill="#00DD98"/>
<path transform="translate(1131,1151)" d="m0 0 7 6 34 34-2 4-8 7-15 16-37 37-7 8-10 11-20 25-13 18-18 27-14 24-18 35-12 27-10 27-10 32h-2l-2-18v-47l3-28 1-6h1v8l3 4 3-1 3-9 11-24 12-23 8-14 9-15 10-15 13-18 14-18 12-14 10-11 7-8 13-13 1-2h2v-2h2l2-4h2l2-4h2v-2h2v-2h2l2-4 4-4h2l2-4 8-7 9-9-2-4-18-18z" fill="#595857"/>
<path transform="translate(185,927)" d="m0 0h73l10 3 8 6 6 7 3 7v14l-4 10-5 6-7 5-5 2-7 1h-74l-10-3-6-4-7-8-3-8v-16l5-10 8-7 8-4z" fill="#040303"/>
<path transform="translate(345,927)" d="m0 0h67l9 3 6 4 5 5 5 7 2 7v9l-4 11-8 9-10 5-6 1h-67l-10-3-8-6-5-6-4-11v-8l3-10 7-8 4-4 8-4z" fill="#040303"/>
<path transform="translate(1589,656)" d="m0 0h100l1 65-1 1-45-1-26 1-29 2z" fill="#00DC98"/>
<path transform="translate(1588,1246)" d="m0 0h98l3 1v100l-4-2-23-23-2-1v-2l-4-2-67-67z" fill="#00DD98"/>
<path transform="translate(1382,1128)" d="m0 0 6 5v2l4 2 556 556-2 3v-2l-4-1-4-4v-2l-6-2-5-6-4-2-1-2-3-2-1-2-3-2-1-2-3-2-1-2-3-2-1-2-3-2-1-2-3-2-1-2-3-2-1-2-3-2-1-2-3-2-1-2-7-6-5-6-7-6v-2l-4-2-8-8v-2l-4-2v-2l-4-2v-2l-4-2v-2l-4-2-192-192-2-4h-2l-2-4h-2l-2-4h-2l-2-4h-2l-1-2-1-3-2 1v-2l-2-2h-2v-2l-2-2h-2v-2l-2-2h-2v-2l-2-2h-2v-2l-2-2h-2v-2l-2-2h-2v-2l-2-2h-2v-2l-2-2h-2v-2l-2-2h-2v-2l-2-2h-2v-2l-4-2v-2l-4-2v-2l-4-2-2-4h-2l-2-4h-2l-2-4h-2l-2-4h-2l-2-4h-2l-2-4h-2l-2-4h-2l-2-4h-2l-1-2-7-6-96-96v-2h-2v-2h-2l-2-4h-2l-2-4h-2l-2-4h-2l-2-4h-2v-2l-8-7-3-4v-2h-3l-1-4h-2v-2h-2l-4-5-8-7-8-4-4 1-8 8-2-1z" fill="#FECE5D"/>
<path transform="translate(1372,307)" d="m0 0h14l13 3 8 6 5 6 4 10v12l-4 10-7 8-10 5-4 1h-22l-10-3-9-7-6-12-1-4v-7l3-10 6-9 9-6 5-2z" fill="#020202"/>
<path transform="translate(1476,307)" d="m0 0h14l10 2 9 5 7 8 4 9v14l-6 12-8 7-11 4h-21l-10-3-6-4-7-8-3-7-1-10 3-11 6-8 7-6 7-3z" fill="#020102"/>
<path transform="translate(774,1464)" d="m0 0h58l1 1v57l-3 1h-55l-1-1z" fill="#20A6FD"/>
<path transform="translate(1332,1464)" d="m0 0h57l1 1v57l-3 1h-55l-1-1v-57z" fill="#20A6FD"/>
<path transform="translate(1610,992)" d="m0 0h58l1 20v37l-3 2h-55l-1-1z" fill="#20A6FD"/>
<path transform="translate(1331,677)" d="m0 0h59v58h-59z" fill="#20A6FD"/>
<path transform="translate(774,677)" d="m0 0h58l1 1v57h-59z" fill="#20A6FD"/>
<path transform="translate(217,1464)" d="m0 0h58v58l-4 1h-53l-1-1-1-57z" fill="#20A6FD"/>
<path transform="translate(217,677)" d="m0 0h58v58h-58z" fill="#20A6FD"/>
<path transform="translate(1141,910)" d="m0 0h12l13 4 10 7 3 3-2 4-56 56-4 2-9-13-4-12v-16l4-11 6-9 9-8 10-5z" fill="#86847E"/>
<path transform="translate(1704,1679)" d="m0 0 4 1 11 7 5 6 1 7 12 3 3 3 6 1h6l1-2 3 5-1177-1v-1l1117-1 2-3 6-2 9-1 1-4-7-4 2 3-5-1-1-2v-13z" fill="#F4ECE6"/>
<path transform="translate(1141,910)" d="m0 0h12l13 4 10 7 3 3-2 4-25 25v-3l4-4 1-4-13-9-10-5-14-5-8 6 2-4 9-8 10-5z" fill="#585857"/>
<path transform="translate(1836,549)" d="m0 0h1v947l-3-1 1-8v-710z" fill="#E8E0DA"/>
<path transform="translate(1729,976)" d="m0 0h1l1 10 1 24v37l-2 15h-1z" fill="#F4ECE6"/>
<path transform="translate(974,1424)" d="m0 0h1l1 34 1 6 1 10-2 7h-1l-1-10z" fill="#41474A"/>
<path transform="translate(1643,780)" d="m0 0 41 1v2l-5 1-9-1h-19l-8-1z" fill="#41474A"/>
<path transform="translate(928,714)" d="m0 0 5 2 1 5-6 2-5-1 1-4z" fill="#F4ECE6"/>
<path transform="translate(363,1512)" d="m0 0 6 1 1 5-2 3-6-2z" fill="#F4EDE7"/>
<path transform="translate(1984,1763)" d="m0 0 1 4-3 7h-2l-2 4-5 5-4 2 6-7 6-9 2-4z" fill="#F6C85D"/>
<path transform="translate(1670,781)" d="m0 0h14v2l-5 1-9-1z" fill="#43484B"/>
</svg>
