<?xml version="1.0" encoding="UTF-8"?>
<svg version="1.1" xmlns="http://www.w3.org/2000/svg" width="512" height="512">
<path d="M0 0 C11.88 0 23.76 0 36 0 C36 5.94 36 11.88 36 18 C37.4025 18.226875 38.805 18.45375 40.25 18.6875 C47.98532325 20.23456465 55.28802516 23.23570931 62 27.375 C64.71211222 29.18414127 64.71211222 29.18414127 66.90625 28.890625 C70.71035953 27.27245901 73.06359594 23.8607237 75.78125 20.8359375 C78 19 78 19 79.79980469 19.06469727 C82.97147292 20.41297301 85.06273057 22.6940472 87.421875 25.12890625 C87.92672424 25.63800034 88.43157349 26.14709442 88.95172119 26.6716156 C90.55833979 28.2949912 92.15419822 29.928497 93.75 31.5625 C94.83914984 32.6667005 95.92898605 33.77022445 97.01953125 34.87304688 C99.6877076 37.5742529 102.34628291 40.28459063 105 43 C103.30413874 46.63303084 101.26199512 48.94549046 98.375 51.75 C97.14910156 52.94882813 97.14910156 52.94882813 95.8984375 54.171875 C95.27195312 54.77515625 94.64546875 55.3784375 94 56 C94.25692627 56.50748779 94.51385254 57.01497559 94.77856445 57.5378418 C99.84051327 67.62414225 104.02801521 76.82541952 106 88 C111.61 88 117.22 88 123 88 C123 99.88 123 111.76 123 124 C114.585 124.495 114.585 124.495 106 125 C105.319375 127.35125 104.63875 129.7025 103.9375 132.125 C101.48784027 140.25402902 98.04282126 147.54349969 94 155 C95.20849609 156.12148438 95.20849609 156.12148438 96.44140625 157.265625 C97.48241554 158.25974198 98.52274524 159.25457096 99.5625 160.25 C100.09552734 160.74113281 100.62855469 161.23226562 101.17773438 161.73828125 C102.69140625 163.203125 102.69140625 163.203125 105 166 C104.91902217 170.22884218 101.71638407 172.66506211 98.87109375 175.421875 C98.36199966 175.92672424 97.85290558 176.43157349 97.3283844 176.95172119 C95.7050088 178.55833979 94.071503 180.15419822 92.4375 181.75 C91.3332995 182.83914984 90.22977555 183.92898605 89.12695312 185.01953125 C86.4257471 187.6877076 83.71540937 190.34628291 81 193 C77.36696916 191.30413874 75.05450954 189.26199512 72.25 186.375 C71.45078125 185.55773437 70.6515625 184.74046875 69.828125 183.8984375 C69.22484375 183.27195312 68.6215625 182.64546875 68 182 C64.16438171 183.48452634 60.46495502 185.17424237 56.75 186.9375 C43.64669927 193 43.64669927 193 36 193 C36 198.94 36 204.88 36 211 C32.7 211 29.4 211 26 211 C26 223.87 26 236.74 26 250 C31.12362061 249.98428955 36.24724121 249.9685791 41.52612305 249.95239258 C58.42962381 249.9027464 75.33312739 249.86941821 92.23668194 249.84456348 C102.488148 249.82908949 112.73954504 249.80798977 122.9909668 249.77368164 C131.92529671 249.74379561 140.85957664 249.72442887 149.79395515 249.71773452 C154.52538065 249.71382091 159.25666313 249.7046123 163.98804283 249.68280983 C168.4408206 249.66245729 172.89339634 249.65616371 177.3462162 249.66067696 C178.98087283 249.6598512 180.61553617 249.65387818 182.25015259 249.64238358 C184.48197347 249.62745843 186.71303148 249.63104603 188.94487 249.63923645 C190.19389949 249.63647107 191.44292898 249.63370569 192.72980785 249.63085651 C196.31027522 250.03502426 198.15248561 250.82927768 201 253 C203.20348536 256.30522804 203.24563385 257.27660999 203.22705078 261.11401367 C203.22689972 262.15486618 203.22674866 263.19571869 203.22659302 264.26811218 C203.21627045 265.39006485 203.20594788 266.51201752 203.1953125 267.66796875 C203.19106766 269.39289299 203.19106766 269.39289299 203.18673706 271.15266418 C203.17552833 274.83104796 203.15042224 278.50918962 203.125 282.1875 C203.11497111 284.67903295 203.1058451 287.1705697 203.09765625 289.66210938 C203.07558673 295.77482241 203.04210224 301.88739391 203 308 C204.17369141 308.21039917 204.17369141 308.21039917 205.37109375 308.42504883 C211.07727939 309.67301198 216.40264858 314.63992172 219.90234375 319.18359375 C224.75593873 327.21534344 226.49980564 335.66354304 224.33984375 344.7890625 C221.48080131 353.77462444 216.31121393 360.40230719 208 365 C199.7680419 368.25038689 189.94556119 368.43732066 181.5625 365.5 C173.61203119 361.7430397 168.04267602 355.18256375 165 347 C162.79189054 339.87180771 163.08874835 331.18525904 165.76171875 324.23046875 C169.69714274 317.14173973 175.57976823 311.26490198 183 308 C183.99 308 184.98 308 186 308 C186 294.47 186 280.94 186 267 C133.2 267 80.4 267 26 267 C26 280.53 26 294.06 26 308 C27.65 308.33 29.3 308.66 31 309 C38.9033653 312.84859527 43.3304969 318.55014937 47.12890625 326.3046875 C49.76869063 334.4726302 49.05272388 343.92216299 45.4375 351.625 C42.63683852 356.45417798 39.73697478 360.03201995 35 363 C34.37867188 363.40992188 33.75734375 363.81984375 33.1171875 364.2421875 C26.13757762 368.09026139 17.73954955 368.25054524 10 367 C2.42375737 364.59901829 -3.74760292 360.78693839 -8 354 C-8.40992188 353.37867188 -8.81984375 352.75734375 -9.2421875 352.1171875 C-13.09026139 345.13757762 -13.25054524 336.73954955 -12 329 C-9.03977017 319.65906277 -4.08047353 313.93104242 4.25 309.125 C7 308 7 308 10 308 C10 294.47 10 280.94 10 267 C-42.8 267 -95.6 267 -150 267 C-150 280.53 -150 294.06 -150 308 C-148.35 308.33 -146.7 308.66 -145 309 C-138.07710368 312.69221137 -131.83666047 318.91836134 -129 326.3125 C-126.7668042 334.62172853 -126.75443804 344.3526313 -131 352 C-136.23948824 359.05919074 -142.06470702 365.29360724 -151 367 C-162.2260403 367.79719262 -170.24778436 366.93981859 -179.25 359.875 C-184.89463017 354.65850545 -188.40769062 347.44730426 -189.23828125 339.80859375 C-189.51170516 331.0734195 -187.35045273 323.44294246 -181.75 316.625 C-178.33584013 313.04896186 -174.52478254 310.04598863 -170 308 C-169.01 308 -168.02 308 -167 308 C-167.00888245 307.3596431 -167.01776489 306.71928619 -167.0269165 306.05952454 C-167.11543671 299.3923943 -167.17575393 292.72543111 -167.21972656 286.05786133 C-167.23983705 283.56983662 -167.26712927 281.08185914 -167.30175781 278.59399414 C-167.35029853 275.01697125 -167.37297495 271.44057349 -167.390625 267.86328125 C-167.41127014 266.75165115 -167.43191528 265.64002106 -167.45318604 264.4947052 C-167.45542331 256.7881535 -167.45542331 256.7881535 -165.16308594 252.82104492 C-161.35277091 249.61324133 -157.99258897 249.87620296 -153.18537903 249.87974548 C-152.14022826 249.87846385 -152.14022826 249.87846385 -151.07396334 249.87715632 C-148.73393462 249.87550623 -146.39397722 249.8810152 -144.05395508 249.88647461 C-142.37865704 249.88675661 -140.70335888 249.8865985 -139.02806091 249.8860321 C-134.47465399 249.88574463 -129.92127329 249.89163337 -125.36787248 249.89860606 C-120.61127241 249.90484783 -115.85467177 249.90544405 -111.09806824 249.90663147 C-102.08834025 249.90974235 -93.07862437 249.91795248 -84.06890172 249.92798096 C-73.81268068 249.93914963 -63.55645908 249.94465445 -53.30023348 249.94967639 C-32.2001474 249.96013528 -11.1000779 249.97847775 10 250 C10 237.13 10 224.26 10 211 C6.7 211 3.4 211 0 211 C0 205.06 0 199.12 0 193 C-2.64 192.67 -5.28 192.34 -8 192 C-15.17005719 189.79903793 -21.83168558 186.84785383 -28.09765625 182.72265625 C-29.99196035 181.78256036 -29.99196035 181.78256036 -31.94921875 182.58203125 C-34.51605165 184.35681285 -36.57607548 186.38713653 -38.75 188.625 C-39.54921875 189.44226563 -40.3484375 190.25953125 -41.171875 191.1015625 C-41.77515625 191.72804688 -42.3784375 192.35453125 -43 193 C-48.6012737 190.66988322 -52.53065204 185.87943183 -56.75610352 181.66943359 C-58.31281353 180.12468888 -59.88721009 178.59957766 -61.46289062 177.07421875 C-62.45166381 176.09490267 -63.43933375 175.11447117 -64.42578125 174.1328125 C-65.77796753 172.80080811 -65.77796753 172.80080811 -67.1574707 171.44189453 C-69 169 -69 169 -68.92871094 166.84033203 C-67.46278871 163.93546302 -65.27008041 161.99400141 -62.9375 159.75 C-61.55884766 158.41195312 -61.55884766 158.41195312 -60.15234375 157.046875 C-59.08693359 156.03367187 -59.08693359 156.03367187 -58 155 C-58.25692627 154.48203857 -58.51385254 153.96407715 -58.77856445 153.43041992 C-67.79465817 135.14457241 -67.79465817 135.14457241 -70 125 C-75.61 124.67 -81.22 124.34 -87 124 C-87 112.12 -87 100.24 -87 88 C-81.39 88 -75.78 88 -70 88 C-69.67 86.185 -69.34 84.37 -69 82.5 C-67.33947352 75.1646646 -64.25060163 68.9504852 -60.7421875 62.3359375 C-58.95437159 59.12788298 -58.95437159 59.12788298 -58 56 C-61.63 52.37 -65.26 48.74 -69 45 C-66.23286694 39.46573389 -61.99100167 35.58132732 -57.66943359 31.24389648 C-56.12468888 29.68718647 -54.59957766 28.11278991 -53.07421875 26.53710938 C-52.09490267 25.54833619 -51.11447117 24.56066625 -50.1328125 23.57421875 C-49.24480957 22.67276123 -48.35680664 21.77130371 -47.44189453 20.8425293 C-45 19 -45 19 -42.81787109 19.08276367 C-39.23963814 20.88821911 -36.86150786 24.2226368 -34.21875 27.1640625 C-32.24420187 29.1991639 -32.24420187 29.1991639 -30.1640625 28.984375 C-27.04866217 27.56726149 -23.95086972 26.12550895 -20.875 24.625 C-7.00111351 18 -7.00111351 18 0 18 C0 12.06 0 6.12 0 0 Z M-23 70 C-32.33249481 80.7724696 -36.43513892 94.46813016 -36.27734375 108.58203125 C-34.9211363 125.29585548 -27.09182429 138.0872892 -14.7265625 149.0078125 C-4.13590268 157.13552817 9.78104048 160.87138415 23.0234375 159.7421875 C38.6946002 157.52647041 50.68885875 150.75422429 60.99609375 138.6953125 C69.38315946 127.41446388 73.29752399 113.98837504 72 100 C69.74412529 85.25812111 63.36992726 72.82801975 51.75 63.25 C28.05552158 45.96937177 -2.72644138 48.35375252 -23 70 Z " fill="#92D073" transform="translate(238,136)"/>
<path d="M0 0 C5.76459458 4.54275116 11.28400641 9.32942119 15.4375 15.4375 C18.44043981 14.44397893 21.43402482 13.43875125 24.41015625 12.3671875 C36.23398568 8.33124067 47.63630144 7.97645711 59.4375 12.4375 C72.82240413 19.21966322 80.70650097 28.64922144 85.58984375 42.76953125 C86.56173961 46.97510827 86.69706477 50.76895705 86.625 55.0625 C86.62435547 55.79984375 86.62371094 56.5371875 86.62304688 57.296875 C86.59215535 61.12742435 86.35727114 64.71426643 85.4375 68.4375 C86.24832031 68.72882813 87.05914062 69.02015625 87.89453125 69.3203125 C107.42157302 76.54918245 125.37802981 88.94212078 134.4375 108.4375 C142.70646796 129.5149709 144.30338614 150.29238154 135.75 171.6875 C132.74626408 178.2660525 128.9916557 183.84239442 124.4375 189.4375 C123.83292969 190.21738281 123.22835938 190.99726563 122.60546875 191.80078125 C115.56335908 200.3847423 105.66687224 207.15976252 95.4375 211.4375 C94.1175 211.4375 92.7975 211.4375 91.4375 211.4375 C91.4375 202.1975 91.4375 192.9575 91.4375 183.4375 C84.5075 183.4375 77.5775 183.4375 70.4375 183.4375 C65.02543996 171.29336528 65.02543996 171.29336528 66.4375 167.4375 C67.65258789 165.88183594 67.65258789 165.88183594 69.16015625 164.421875 C69.69833984 163.89335937 70.23652344 163.36484375 70.79101562 162.8203125 C71.35498047 162.28148437 71.91894531 161.74265625 72.5 161.1875 C73.06783203 160.63320312 73.63566406 160.07890625 74.22070312 159.5078125 C75.61962469 158.14415786 77.02769114 156.78989583 78.4375 155.4375 C76.95407 151.99073 75.00699812 149.76406699 72.35498047 147.12792969 C71.09389969 145.8670755 71.09389969 145.8670755 69.80734253 144.58074951 C68.89896637 143.68269592 67.99059021 142.78464233 67.0546875 141.859375 C66.12528351 140.9328009 65.19587952 140.00622681 64.23831177 139.05157471 C61.7734615 136.59434211 59.30266334 134.14317639 56.83056641 131.6932373 C54.30659235 129.18976191 51.78830612 126.68057937 49.26953125 124.171875 C44.33106403 119.25482475 39.386288 114.34416212 34.4375 109.4375 C29.82139053 111.53718229 26.90213452 114.98015206 23.59179688 118.71289062 C22.19140625 120.19921875 22.19140625 120.19921875 19.4375 122.4375 C14.4375 121.4375 14.4375 121.4375 4.4375 117.4375 C4.4375 110.1775 4.4375 102.9175 4.4375 95.4375 C-17.3425 95.4375 -39.1225 95.4375 -61.5625 95.4375 C-61.5625 102.6975 -61.5625 109.9575 -61.5625 117.4375 C-73.70663472 122.84956004 -73.70663472 122.84956004 -77.5625 121.4375 C-79.11816406 120.22241211 -79.11816406 120.22241211 -80.578125 118.71484375 C-81.37089844 117.90756836 -81.37089844 117.90756836 -82.1796875 117.08398438 C-82.71851563 116.52001953 -83.25734375 115.95605469 -83.8125 115.375 C-84.36679688 114.80716797 -84.92109375 114.23933594 -85.4921875 113.65429688 C-86.85584214 112.25537531 -88.21010417 110.84730886 -89.5625 109.4375 C-93.00927 110.92093 -95.23593301 112.86800188 -97.87207031 115.52001953 C-98.71263977 116.36074005 -99.55320923 117.20146057 -100.41925049 118.06765747 C-101.31730408 118.97603363 -102.21535767 119.88440979 -103.140625 120.8203125 C-104.0671991 121.74971649 -104.99377319 122.67912048 -105.94842529 123.63668823 C-108.40565789 126.1015385 -110.85682361 128.57233666 -113.3067627 131.04443359 C-115.81023809 133.56840765 -118.31942063 136.08669388 -120.828125 138.60546875 C-125.74517525 143.54393597 -130.65583788 148.488712 -135.5625 153.4375 C-133.46281771 158.05360947 -130.01984794 160.97286548 -126.28710938 164.28320312 C-124.80078125 165.68359375 -124.80078125 165.68359375 -122.5625 168.4375 C-122.6015625 170.953125 -122.6015625 170.953125 -123.5625 173.4375 C-123.88347656 174.32050781 -124.20445312 175.20351562 -124.53515625 176.11328125 C-125.54427083 178.5546875 -126.55338542 180.99609375 -127.5625 183.4375 C-134.4925 183.4375 -141.4225 183.4375 -148.5625 183.4375 C-148.5625 192.6775 -148.5625 201.9175 -148.5625 211.4375 C-163.7447056 208.9071324 -176.52973055 197.34609238 -185.39257812 185.1796875 C-197.09436521 167.75398787 -201.42897573 146.82383972 -197.375 126.1875 C-193.66807189 110.94405732 -186.50301917 98.57960328 -175.5625 87.4375 C-174.88574219 86.73625 -174.20898438 86.035 -173.51171875 85.3125 C-164.27055074 76.40199525 -148.74550982 67.4375 -135.5625 67.4375 C-135.60890625 66.6846875 -135.6553125 65.931875 -135.703125 65.15625 C-136.43212226 43.70290221 -127.15880767 24.817855 -113.328125 8.859375 C-83.52425899 -22.8924561 -34.42843197 -25.12460914 0 0 Z " fill="#42BC7E" transform="translate(284.5625,25.5625)"/>
</svg>
