<?xml version="1.0" encoding="UTF-8"?>
<svg version="1.1" viewBox="0 0 2048 2048" width="1280" height="1280" xmlns="http://www.w3.org/2000/svg">
<path transform="translate(1258,32)" d="m0 0h237l4 10 16 49 8 23 9 3 43 14 27 11 24 11 16 8 22 12 2 1 23-12 52-26h5l7 8 8 7 151 151-1 6-36 72 1 6 17 32 15 33 11 29 11 34 3 10 7 3 36 12 38 13 2 2v236l-5 3-78 26-12 39-10 27-11 26-9 19-12 22-4 7 1 7 36 72-1 5-5 5-3 1-1 3-6 5-6 7-6 5-6 7-6 5-6 7-6 5-6 7-7 6-5 6-7 6-5 6-7 6-5 6-7 6-5 6-7 6-5 6-7 6-5 6-8 7-12 12-1 2-1 247h95l1 1v127h159l1 1v446l-10 1h-374v-288h-64v287l-9 1h-375v-288h-64v287l-9 1h-374l-1-1v-255h-606l-17-1-17-4-17-8-11-8-12-11-9-12-7-12-5-14-3-18v-1362l4-20 6-14 9-14 9-10 7-7 13-9 15-7 15-4 10-1 798-1 8-7 80-80 7 1 62 31 9 5 5-1 25-13 16-8 19-9 31-12 30-10 18-5 6-16 20-60 3-6zm470 1472v64h64v-64z"/>
<path transform="translate(97,544)" d="m0 0h661l2 2-6 2-18 4v239l11 3 66 22 7 3 8 27 11 32 11 26 13 28 15 28 1 2-38 76 1 4 158 158v2l4 2 3 3 5-1 16-8 15-8 21-10 19-10 4-1 24 13 26 13 31 13 37 13 24 7 6 16 18 55 4 12 87 1v127l-2 1h-445l-1 63v64l-2 1h-157l-1 127-2 1h-603l-15-2-8-5-5-5-5-8-2-9v-1122z" fill="#F3F6F6"/>
<path transform="translate(1304,96)" d="m0 0h144l3 5 12 36 10 29 2 3 44 11 36 12 29 12 25 12 19 10 20 12 13 8 6-1 48-24 15-8 4 2 100 100-1 5-31 62v6l10 16 14 24 13 25 11 25 10 27 8 25 9 36 2 7 9 4 54 18 9 4 1 1v144l-9 4-51 17-12 5-3 8-8 32-12 37-11 27-11 24-12 23-16 27-6 10 9 19 24 48-1 5-100 100-3 1-19-10-48-24-10 5-13 8-21 12-23 12-30 13-27 10-19 6-30 8-16 4-4 10-18 54-3 8-3 1h-142l-2-2-12-36-12-35-40-10-29-9-31-12-20-9-19-9-23-13-23-14-5-2-64 32-5 1-102-102 2-5 31-62 1-3-13-21-12-21-10-19-11-24-12-31-7-21-8-29-5-21v-2l-11-3-44-15-16-5-2-2v-145l8-3 36-12 26-9 3-3 12-46 12-36 11-26 12-25 10-19 17-28 3-4-1-7-30-60-2-5 82-82 5-6 8-7 6-7 4-1 19 10 46 23h5l15-10 23-13 27-14 27-12 27-10 33-10 33-8 4-8 19-57z" fill="#FDD572"/>
<path transform="translate(161,607)" d="m0 0h510l1 1 1 69v185l-1 130h-513l1-384z"/>
<path transform="translate(124,288)" d="m0 0h730l-1 3-8 7-3 3h-2l1 5 37 74-1 6-13 24-13 27-13 32-4 10-737 1-1-1v-164l3-9 6-8 8-6 6-3z" fill="#59D9B4"/>
<path transform="translate(225,672)" d="m0 0h382l1 1v254l-53 1h-329l-2-1v-254z" fill="#F07684"/>
<path transform="translate(1249,1632)" d="m0 0h254l1 1v317l-1 1-34 1h-218l-3-1v-318z" fill="#F1CCB1"/>
<path transform="translate(801,1632)" d="m0 0h254l1 1v317l-1 1-34 1h-218l-3-1v-318z" fill="#F1CCB1"/>
<path transform="translate(1697,1632)" d="m0 0h254l1 1-1 318-39 1h-213l-3-1v-318z" fill="#F1CCB1"/>
<path transform="translate(1078,448)" d="m0 0h21l19 3 21 7 19 10 13 10 9 8 9 11 9 13 8 16 6 16 3 17 1 10v262l-1 1h-63l-1-5v-122h-126l-1 126-1 1h-63l-1-3v-91l1-169 2-18 4-15 5-13 9-17 10-13 4-5h2l2-4 8-7 15-11 16-8 14-5 18-4z"/>
<path transform="translate(1280,448)" d="m0 0h138l20 3 16 5 21 10 16 12 9 8 9 11 9 13 8 16 5 13 4 20 1 7v20l-3 18-5 17-6 14-10 16-11 13-9 9-12 9-14 8-18 8-17 4-18 2-68 1-1 126-1 1h-63l-1-1v-288z"/>
<path transform="translate(1664,1169)" d="m0 0 4 1 17 8 10 5 1 2v254l-2 1h-285l-1-1v-127l87-1 14-43 12-36 2-4 26-8 24-8 28-11 28-13 27-14z" fill="#F3F6F7"/>
<path transform="translate(1568,448)" d="m0 0h192v64l-63 1v254l63 1v64h-192l-1-1 1-63 7-1 56-1v-253l-63-1-1-9z"/>
<path transform="translate(960,1504)" d="m0 0h384v63l-2 1h-157l-1 159-1 1h-62l-1-1v-159h-159l-1-1z" fill="#F2F5F6"/>
<path transform="translate(160,1055)" d="m0 0h240l272 1v64h-513v-17z"/>
<path transform="translate(161,1567)" d="m0 0h489l22 1v64h-512l-1-2 1-62z"/>
<path transform="translate(160,1311)" d="m0 0h468l44 1v64h-513z"/>
<path transform="translate(1409,1504)" d="m0 0h319v63l-2 1h-93l-1 159-1 1h-62l-1-1v-159h-159l-1-1v-62z" fill="#F2F5F6"/>
<path transform="translate(288,1439)" d="m0 0h57l327 1v64h-384l-1-2z"/>
<path transform="translate(160,1183)" d="m0 0h304l16 1v64h-321z"/>
<path transform="translate(1078,512)" d="m0 0h19l12 3 14 7 10 8 9 11 6 12 3 10 1 8v67l-4 2h-123l-1-1v-71l4-16 8-14 9-10 11-8 13-6z" fill="#FDD372"/>
<path transform="translate(1345,512)" d="m0 0h71l10 2 12 5 10 7 9 8 9 14 5 15 1 6v14l-2 10-5 12-7 11-10 10-11 7-13 5-13 2h-66l-1-1v-126z" fill="#FDD472"/>
<path transform="translate(1761,1695)" d="m0 0h62l65 1v64h-129v-57l1-7z"/>
<path transform="translate(1761,1823)" d="m0 0h46l81 1v64h-128l-1-1v-22l1-41z"/>
<path transform="translate(865,1695)" d="m0 0h46l81 1v64h-129v-37l1-27z"/>
<path transform="translate(1313,1695)" d="m0 0h46l81 1v64h-129v-38l1-26z"/>
<path transform="translate(1313,1823)" d="m0 0h37l90 1v64h-128l-1-1v-21l1-42z"/>
<path transform="translate(865,1823)" d="m0 0h38l89 1v64h-128l-1-1v-19l1-44z"/>
<path transform="translate(545,1183)" d="m0 0h44l83 1v64h-128l-1-2 1-62z"/>
<path transform="translate(1697,1632)" d="m0 0h254l1 1-1 318h-19l-2-2h2l2-4 7-1 2-3 1-11 1-34v-36l-1-157v-58l-1-5-6-2h-23l-34 1h-156l-18 2-4 4v109l-3 3-1-2-1-15-1-52v-55z" fill="#F2DAC7"/>
<path transform="translate(416,351)" d="m0 0h64l1 4-1 61h-64l-1-1v-57z"/>
<path transform="translate(288,351)" d="m0 0h64l1 2-1 63h-64l-1-1v-57z"/>
<path transform="translate(160,351)" d="m0 0h64l1 2-1 63h-64l-1-1v-57z"/>
<path transform="translate(160,1439)" d="m0 0h48l16 1v64h-64l-1-1z"/>
<path transform="translate(1249,1632)" d="m0 0h254l1 1v317l-1 1h-17l-1-3 1-2 9-2 1-8 1-33v-249l-2-13-6-3h-33l-78 1h-102l-15 1-6 1-1 11v99l-3 4-1-1-1-15-1-58v-48z" fill="#F4D9C5"/>
<path transform="translate(801,1632)" d="m0 0h254l1 1v317l-1 1h-17l-1-3 1-2 9-2 1-8 1-34v-248l-2-13-6-3h-42l-81 1h-90l-17 1-4 3-1 5 1 51-1 36-2 2-1-1-1-7-1-20-1-41v-35z" fill="#F4D8C4"/>
<path transform="translate(1889,1698)" d="m0 0 2 4 3 12 1 21-1 14-3 14-2 1v-2l-11 1-1 1-13 1-4 1-6-1-5 1h-15l-32 1h-25l-9-2-2-1v-2l-8 1-1-2 106-1h25v-27z" fill="#F3E1CF"/>
<path transform="translate(1441,1698)" d="m0 0h1v8h2l2 9v31l-2 7-1 10-14-1v2l-25 1-3 1h-23l-24 1h-25l-9-2-1-4 96-1h25z" fill="#F2E1CF"/>
<path transform="translate(993,1700)" d="m0 0h1v6h2l2 9v31l-2 7-1 10-14-1v2l-26 1-2 1h-23l-25 1h-24l-7-1-3-2v-3l96-1h25z" fill="#F2E1CF"/>
<path transform="translate(1795,1689)" d="m0 0h46l20 1 3 3-29 2h-76l4-2 13-3z" fill="#F5E2D0"/>
<path transform="translate(1864,1888)" d="m0 0 20 1v1l-7 2-39 1h-12l-27 1h-13l-17-2-1-3z" fill="#F3E1CF"/>
<path transform="translate(1416,1888)" d="m0 0 19 1v1l-6 2-33 1h-20l-25 1h-13l-17-2-1-3z" fill="#F2E1CF"/>
<path transform="translate(968,1888)" d="m0 0 19 1v1l-6 2-33 1h-18l-27 1h-13l-17-2-1-3z" fill="#F2E1CF"/>
<path transform="translate(1758,1697)" d="m0 0h1l1 21-1 42h104v1h-106l-2-13-2-4v-15l1-20z" fill="#F3C0B7"/>
<path transform="translate(862,1697)" d="m0 0h1v63h104v1l-96 1-9 1-1-1-2-14-2-6v-10l2-24z" fill="#F3C1B7"/>
<path transform="translate(1310,1697)" d="m0 0h1v63h104v1l-96 1-9 1-1-1-2-14-1-1-1-15 1-22z" fill="#F3C0B7"/>
<path transform="translate(1362,1689)" d="m0 0 21 1 2 1 9 1-2 2-9 1-28 1h-39l-5-1 3-2 14-3z" fill="#F4DACA"/>
<path transform="translate(1335,1817)" d="m0 0h40l9 1 9 2v1l-6 1-41 2-33-1 2-2 13-3z" fill="#F4DFCE"/>
<path transform="translate(1785,1817)" d="m0 0h45l4 2 8 1v1l-7 1-36 2-38-1 2-2 13-3z" fill="#F4E0CE"/>
<path transform="translate(900,1689)" d="m0 0h15l20 1 1 1 10 1-4 2-8 1-28 1h-27l-16-1 4-2 9-2 4-1z" fill="#F4DBCB"/>
<path transform="translate(887,1817)" d="m0 0h40l4 1h5l7 2v1l-5 1-40 2-33-1 2-2 13-3z" fill="#F4DFCE"/>
<path transform="translate(1889,1698)" d="m0 0 2 4 3 12 1 21-1 14-3 14-2 1-1-2-18-1v-1h18v-27z" fill="#F1D5C7"/>
<path transform="translate(1889,1834)" d="m0 0h3l2 4 1 23-1 13-4 11h-2v-50z" fill="#EAD4C5"/>
<path transform="translate(1441,1698)" d="m0 0h1v8h2l2 9v31l-2 7-1 10-4-1-16-1v-1h17z" fill="#F1D9C9"/>
<path transform="translate(993,1700)" d="m0 0h1v6h2l2 9v31l-2 7-1 10-4-1-15-1v-1h16z" fill="#F1DACA"/>
<path transform="translate(1442,1835)" d="m0 0h2l2 4 1 22-1 13-4 7h-2v-42z" fill="#EFD3C4"/>
<path transform="translate(994,1835)" d="m0 0h2l2 4 1 22-1 13-4 7h-2v-42z" fill="#EFD3C4"/>
<path transform="translate(1252,1945)" d="m0 0h6l1 1 14 1 5 3v1h-29l1-5z" fill="#F5E2D0"/>
<path transform="translate(1700,1945)" d="m0 0h6l1 1 14 1 4 2v2h-28l1-5z" fill="#F5E2D0"/>
<path transform="translate(804,1945)" d="m0 0h6l1 1 14 1 4 2v2h-28z" fill="#F5E2D0"/>
<path transform="translate(1757,1838)" d="m0 0h1v44l-2-4-1-6-1-4v-11l1-2 1-14z" fill="#F4E1CF"/>
<path transform="translate(861,1839)" d="m0 0h1v43l-2-3-1-7-1-4v-11l1-2 1-14z" fill="#F4E1CF"/>
<path transform="translate(1309,1839)" d="m0 0h1v43l-2-4-1-6-1-4v-8l1-5 1-14z" fill="#F5E2D0"/>
<path transform="translate(1249,1642)" d="m0 0h1l1 28-1 16h-1l-1-5v-35z" fill="#BAE3D7"/>
<path transform="translate(1697,1632)" d="m0 0 7 1-3 1-1 3h-2v10h-1z" fill="#F5F5F5"/>
</svg>
